<svg xmlns="http://www.w3.org/2000/svg" width="634" height="472" viewBox="0 0 634 472">
<defs><marker id="arrow" viewBox="0 0 10 10" refX="9" refY="5" markerWidth="6" markerHeight="6" orient="auto"><path d="M 0 0 L 10 5 L 0 10 z" fill="#63636e"/></marker></defs>
<g data-node="rosho" data-pinned="false" data-shape="rect"><rect x="105" y="156" width="400" height="200" fill="#ffffff" stroke="#1c1c22" stroke-width="1"/><line x1="505" y1="163" x2="498" y2="156" stroke="#1c1c22" stroke-width="0.7"/><line x1="505" y1="172" x2="489" y2="156" stroke="#1c1c22" stroke-width="0.7"/><line x1="505" y1="181" x2="480" y2="156" stroke="#1c1c22" stroke-width="0.7"/><line x1="505" y1="190" x2="471" y2="156" stroke="#1c1c22" stroke-width="0.7"/><line x1="505" y1="199" x2="462" y2="156" stroke="#1c1c22" stroke-width="0.7"/><line x1="505" y1="208" x2="453" y2="156" stroke="#1c1c22" stroke-width="0.7"/><line x1="505" y1="217" x2="444" y2="156" stroke="#1c1c22" stroke-width="0.7"/><line x1="505" y1="226" x2="435" y2="156" stroke="#1c1c22" stroke-width="0.7"/><line x1="505" y1="235" x2="426" y2="156" stroke="#1c1c22" stroke-width="0.7"/><line x1="505" y1="244" x2="417" y2="156" stroke="#1c1c22" stroke-width="0.7"/><line x1="505" y1="253" x2="408" y2="156" stroke="#1c1c22" stroke-width="0.7"/><line x1="505" y1="262" x2="399" y2="156" stroke="#1c1c22" stroke-width="0.7"/><line x1="505" y1="271" x2="390" y2="156" stroke="#1c1c22" stroke-width="0.7"/><line x1="505" y1="280" x2="381" y2="156" stroke="#1c1c22" stroke-width="0.7"/><line x1="505" y1="289" x2="372" y2="156" stroke="#1c1c22" stroke-width="0.7"/><line x1="505" y1="298" x2="363" y2="156" stroke="#1c1c22" stroke-width="0.7"/><line x1="505" y1="307" x2="354" y2="156" stroke="#1c1c22" stroke-width="0.7"/><line x1="505" y1="316" x2="345" y2="156" stroke="#1c1c22" stroke-width="0.7"/><line x1="505" y1="325" x2="336" y2="156" stroke="#1c1c22" stroke-width="0.7"/><line x1="505" y1="334" x2="327" y2="156" stroke="#1c1c22" stroke-width="0.7"/><line x1="505" y1="343" x2="318" y2="156" stroke="#1c1c22" stroke-width="0.7"/><line x1="505" y1="352" x2="309" y2="156" stroke="#1c1c22" stroke-width="0.7"/><line x1="300" y1="156" x2="500" y2="356" stroke="#1c1c22" stroke-width="0.7"/><line x1="291" y1="156" x2="491" y2="356" stroke="#1c1c22" stroke-width="0.7"/><line x1="282" y1="156" x2="482" y2="356" stroke="#1c1c22" stroke-width="0.7"/><line x1="273" y1="156" x2="473" y2="356" stroke="#1c1c22" stroke-width="0.7"/><line x1="264" y1="156" x2="464" y2="356" stroke="#1c1c22" stroke-width="0.7"/><line x1="255" y1="156" x2="455" y2="356" stroke="#1c1c22" stroke-width="0.7"/><line x1="246" y1="156" x2="446" y2="356" stroke="#1c1c22" stroke-width="0.7"/><line x1="237" y1="156" x2="437" y2="356" stroke="#1c1c22" stroke-width="0.7"/><line x1="228" y1="156" x2="428" y2="356" stroke="#1c1c22" stroke-width="0.7"/><line x1="219" y1="156" x2="419" y2="356" stroke="#1c1c22" stroke-width="0.7"/><line x1="210" y1="156" x2="410" y2="356" stroke="#1c1c22" stroke-width="0.7"/><line x1="201" y1="156" x2="401" y2="356" stroke="#1c1c22" stroke-width="0.7"/><line x1="192" y1="156" x2="392" y2="356" stroke="#1c1c22" stroke-width="0.7"/><line x1="183" y1="156" x2="383" y2="356" stroke="#1c1c22" stroke-width="0.7"/><line x1="174" y1="156" x2="374" y2="356" stroke="#1c1c22" stroke-width="0.7"/><line x1="165" y1="156" x2="365" y2="356" stroke="#1c1c22" stroke-width="0.7"/><line x1="156" y1="156" x2="356" y2="356" stroke="#1c1c22" stroke-width="0.7"/><line x1="147" y1="156" x2="347" y2="356" stroke="#1c1c22" stroke-width="0.7"/><line x1="138" y1="156" x2="338" y2="356" stroke="#1c1c22" stroke-width="0.7"/><line x1="129" y1="156" x2="329" y2="356" stroke="#1c1c22" stroke-width="0.7"/><line x1="120" y1="156" x2="320" y2="356" stroke="#1c1c22" stroke-width="0.7"/><line x1="111" y1="156" x2="311" y2="356" stroke="#1c1c22" stroke-width="0.7"/><line x1="105" y1="159" x2="302" y2="356" stroke="#1c1c22" stroke-width="0.7"/><line x1="105" y1="168" x2="293" y2="356" stroke="#1c1c22" stroke-width="0.7"/><line x1="105" y1="177" x2="284" y2="356" stroke="#1c1c22" stroke-width="0.7"/><line x1="105" y1="186" x2="275" y2="356" stroke="#1c1c22" stroke-width="0.7"/><line x1="105" y1="195" x2="266" y2="356" stroke="#1c1c22" stroke-width="0.7"/><line x1="105" y1="204" x2="257" y2="356" stroke="#1c1c22" stroke-width="0.7"/><line x1="105" y1="213" x2="248" y2="356" stroke="#1c1c22" stroke-width="0.7"/><line x1="105" y1="222" x2="239" y2="356" stroke="#1c1c22" stroke-width="0.7"/><line x1="105" y1="231" x2="230" y2="356" stroke="#1c1c22" stroke-width="0.7"/><line x1="105" y1="240" x2="221" y2="356" stroke="#1c1c22" stroke-width="0.7"/><line x1="105" y1="249" x2="212" y2="356" stroke="#1c1c22" stroke-width="0.7"/><line x1="105" y1="258" x2="203" y2="356" stroke="#1c1c22" stroke-width="0.7"/><line x1="105" y1="267" x2="194" y2="356" stroke="#1c1c22" stroke-width="0.7"/><line x1="105" y1="276" x2="185" y2="356" stroke="#1c1c22" stroke-width="0.7"/><line x1="105" y1="285" x2="176" y2="356" stroke="#1c1c22" stroke-width="0.7"/><line x1="105" y1="294" x2="167" y2="356" stroke="#1c1c22" stroke-width="0.7"/><line x1="105" y1="303" x2="158" y2="356" stroke="#1c1c22" stroke-width="0.7"/><line x1="105" y1="312" x2="149" y2="356" stroke="#1c1c22" stroke-width="0.7"/><line x1="105" y1="321" x2="140" y2="356" stroke="#1c1c22" stroke-width="0.7"/><line x1="105" y1="330" x2="131" y2="356" stroke="#1c1c22" stroke-width="0.7"/><line x1="105" y1="339" x2="122" y2="356" stroke="#1c1c22" stroke-width="0.7"/><line x1="105" y1="348" x2="113" y2="356" stroke="#1c1c22" stroke-width="0.7"/><rect x="288" y="241" width="34" height="15" fill="#ffffff"/><text x="305" y="252" text-anchor="middle" font-family="sans-serif" font-size="12" fill="#1c1c22">路床</text><rect x="249" y="258" width="112" height="13" fill="#ffffff"/><text x="305" y="267" text-anchor="middle" font-family="sans-serif" font-size="10" fill="#63636e">設計 CBR 6・t=1,000</text></g>
<g data-node="kaban" data-pinned="false" data-shape="rect"><rect x="105" y="96" width="400" height="60" fill="#ffffff" stroke="#1c1c22" stroke-width="1"/><circle cx="110" cy="101" r="0.9" fill="#1c1c22"/><circle cx="119" cy="101" r="0.9" fill="#1c1c22"/><circle cx="128" cy="101" r="0.9" fill="#1c1c22"/><circle cx="137" cy="101" r="0.9" fill="#1c1c22"/><circle cx="146" cy="101" r="0.9" fill="#1c1c22"/><circle cx="155" cy="101" r="0.9" fill="#1c1c22"/><circle cx="164" cy="101" r="0.9" fill="#1c1c22"/><circle cx="173" cy="101" r="0.9" fill="#1c1c22"/><circle cx="182" cy="101" r="0.9" fill="#1c1c22"/><circle cx="191" cy="101" r="0.9" fill="#1c1c22"/><circle cx="200" cy="101" r="0.9" fill="#1c1c22"/><circle cx="209" cy="101" r="0.9" fill="#1c1c22"/><circle cx="218" cy="101" r="0.9" fill="#1c1c22"/><circle cx="227" cy="101" r="0.9" fill="#1c1c22"/><circle cx="236" cy="101" r="0.9" fill="#1c1c22"/><circle cx="245" cy="101" r="0.9" fill="#1c1c22"/><circle cx="254" cy="101" r="0.9" fill="#1c1c22"/><circle cx="263" cy="101" r="0.9" fill="#1c1c22"/><circle cx="272" cy="101" r="0.9" fill="#1c1c22"/><circle cx="281" cy="101" r="0.9" fill="#1c1c22"/><circle cx="290" cy="101" r="0.9" fill="#1c1c22"/><circle cx="299" cy="101" r="0.9" fill="#1c1c22"/><circle cx="308" cy="101" r="0.9" fill="#1c1c22"/><circle cx="317" cy="101" r="0.9" fill="#1c1c22"/><circle cx="326" cy="101" r="0.9" fill="#1c1c22"/><circle cx="335" cy="101" r="0.9" fill="#1c1c22"/><circle cx="344" cy="101" r="0.9" fill="#1c1c22"/><circle cx="353" cy="101" r="0.9" fill="#1c1c22"/><circle cx="362" cy="101" r="0.9" fill="#1c1c22"/><circle cx="371" cy="101" r="0.9" fill="#1c1c22"/><circle cx="380" cy="101" r="0.9" fill="#1c1c22"/><circle cx="389" cy="101" r="0.9" fill="#1c1c22"/><circle cx="398" cy="101" r="0.9" fill="#1c1c22"/><circle cx="407" cy="101" r="0.9" fill="#1c1c22"/><circle cx="416" cy="101" r="0.9" fill="#1c1c22"/><circle cx="425" cy="101" r="0.9" fill="#1c1c22"/><circle cx="434" cy="101" r="0.9" fill="#1c1c22"/><circle cx="443" cy="101" r="0.9" fill="#1c1c22"/><circle cx="452" cy="101" r="0.9" fill="#1c1c22"/><circle cx="461" cy="101" r="0.9" fill="#1c1c22"/><circle cx="470" cy="101" r="0.9" fill="#1c1c22"/><circle cx="479" cy="101" r="0.9" fill="#1c1c22"/><circle cx="488" cy="101" r="0.9" fill="#1c1c22"/><circle cx="497" cy="101" r="0.9" fill="#1c1c22"/><circle cx="110" cy="110" r="0.9" fill="#1c1c22"/><circle cx="119" cy="110" r="0.9" fill="#1c1c22"/><circle cx="128" cy="110" r="0.9" fill="#1c1c22"/><circle cx="137" cy="110" r="0.9" fill="#1c1c22"/><circle cx="146" cy="110" r="0.9" fill="#1c1c22"/><circle cx="155" cy="110" r="0.9" fill="#1c1c22"/><circle cx="164" cy="110" r="0.9" fill="#1c1c22"/><circle cx="173" cy="110" r="0.9" fill="#1c1c22"/><circle cx="182" cy="110" r="0.9" fill="#1c1c22"/><circle cx="191" cy="110" r="0.9" fill="#1c1c22"/><circle cx="200" cy="110" r="0.9" fill="#1c1c22"/><circle cx="209" cy="110" r="0.9" fill="#1c1c22"/><circle cx="218" cy="110" r="0.9" fill="#1c1c22"/><circle cx="227" cy="110" r="0.9" fill="#1c1c22"/><circle cx="236" cy="110" r="0.9" fill="#1c1c22"/><circle cx="245" cy="110" r="0.9" fill="#1c1c22"/><circle cx="254" cy="110" r="0.9" fill="#1c1c22"/><circle cx="263" cy="110" r="0.9" fill="#1c1c22"/><circle cx="272" cy="110" r="0.9" fill="#1c1c22"/><circle cx="281" cy="110" r="0.9" fill="#1c1c22"/><circle cx="290" cy="110" r="0.9" fill="#1c1c22"/><circle cx="299" cy="110" r="0.9" fill="#1c1c22"/><circle cx="308" cy="110" r="0.9" fill="#1c1c22"/><circle cx="317" cy="110" r="0.9" fill="#1c1c22"/><circle cx="326" cy="110" r="0.9" fill="#1c1c22"/><circle cx="335" cy="110" r="0.9" fill="#1c1c22"/><circle cx="344" cy="110" r="0.9" fill="#1c1c22"/><circle cx="353" cy="110" r="0.9" fill="#1c1c22"/><circle cx="362" cy="110" r="0.9" fill="#1c1c22"/><circle cx="371" cy="110" r="0.9" fill="#1c1c22"/><circle cx="380" cy="110" r="0.9" fill="#1c1c22"/><circle cx="389" cy="110" r="0.9" fill="#1c1c22"/><circle cx="398" cy="110" r="0.9" fill="#1c1c22"/><circle cx="407" cy="110" r="0.9" fill="#1c1c22"/><circle cx="416" cy="110" r="0.9" fill="#1c1c22"/><circle cx="425" cy="110" r="0.9" fill="#1c1c22"/><circle cx="434" cy="110" r="0.9" fill="#1c1c22"/><circle cx="443" cy="110" r="0.9" fill="#1c1c22"/><circle cx="452" cy="110" r="0.9" fill="#1c1c22"/><circle cx="461" cy="110" r="0.9" fill="#1c1c22"/><circle cx="470" cy="110" r="0.9" fill="#1c1c22"/><circle cx="479" cy="110" r="0.9" fill="#1c1c22"/><circle cx="488" cy="110" r="0.9" fill="#1c1c22"/><circle cx="497" cy="110" r="0.9" fill="#1c1c22"/><circle cx="110" cy="119" r="0.9" fill="#1c1c22"/><circle cx="119" cy="119" r="0.9" fill="#1c1c22"/><circle cx="128" cy="119" r="0.9" fill="#1c1c22"/><circle cx="137" cy="119" r="0.9" fill="#1c1c22"/><circle cx="146" cy="119" r="0.9" fill="#1c1c22"/><circle cx="155" cy="119" r="0.9" fill="#1c1c22"/><circle cx="164" cy="119" r="0.9" fill="#1c1c22"/><circle cx="173" cy="119" r="0.9" fill="#1c1c22"/><circle cx="182" cy="119" r="0.9" fill="#1c1c22"/><circle cx="191" cy="119" r="0.9" fill="#1c1c22"/><circle cx="200" cy="119" r="0.9" fill="#1c1c22"/><circle cx="209" cy="119" r="0.9" fill="#1c1c22"/><circle cx="218" cy="119" r="0.9" fill="#1c1c22"/><circle cx="227" cy="119" r="0.9" fill="#1c1c22"/><circle cx="236" cy="119" r="0.9" fill="#1c1c22"/><circle cx="245" cy="119" r="0.9" fill="#1c1c22"/><circle cx="254" cy="119" r="0.9" fill="#1c1c22"/><circle cx="263" cy="119" r="0.9" fill="#1c1c22"/><circle cx="272" cy="119" r="0.9" fill="#1c1c22"/><circle cx="281" cy="119" r="0.9" fill="#1c1c22"/><circle cx="290" cy="119" r="0.9" fill="#1c1c22"/><circle cx="299" cy="119" r="0.9" fill="#1c1c22"/><circle cx="308" cy="119" r="0.9" fill="#1c1c22"/><circle cx="317" cy="119" r="0.9" fill="#1c1c22"/><circle cx="326" cy="119" r="0.9" fill="#1c1c22"/><circle cx="335" cy="119" r="0.9" fill="#1c1c22"/><circle cx="344" cy="119" r="0.9" fill="#1c1c22"/><circle cx="353" cy="119" r="0.9" fill="#1c1c22"/><circle cx="362" cy="119" r="0.9" fill="#1c1c22"/><circle cx="371" cy="119" r="0.9" fill="#1c1c22"/><circle cx="380" cy="119" r="0.9" fill="#1c1c22"/><circle cx="389" cy="119" r="0.9" fill="#1c1c22"/><circle cx="398" cy="119" r="0.9" fill="#1c1c22"/><circle cx="407" cy="119" r="0.9" fill="#1c1c22"/><circle cx="416" cy="119" r="0.9" fill="#1c1c22"/><circle cx="425" cy="119" r="0.9" fill="#1c1c22"/><circle cx="434" cy="119" r="0.9" fill="#1c1c22"/><circle cx="443" cy="119" r="0.9" fill="#1c1c22"/><circle cx="452" cy="119" r="0.9" fill="#1c1c22"/><circle cx="461" cy="119" r="0.9" fill="#1c1c22"/><circle cx="470" cy="119" r="0.9" fill="#1c1c22"/><circle cx="479" cy="119" r="0.9" fill="#1c1c22"/><circle cx="488" cy="119" r="0.9" fill="#1c1c22"/><circle cx="497" cy="119" r="0.9" fill="#1c1c22"/><circle cx="110" cy="128" r="0.9" fill="#1c1c22"/><circle cx="119" cy="128" r="0.9" fill="#1c1c22"/><circle cx="128" cy="128" r="0.9" fill="#1c1c22"/><circle cx="137" cy="128" r="0.9" fill="#1c1c22"/><circle cx="146" cy="128" r="0.9" fill="#1c1c22"/><circle cx="155" cy="128" r="0.9" fill="#1c1c22"/><circle cx="164" cy="128" r="0.9" fill="#1c1c22"/><circle cx="173" cy="128" r="0.9" fill="#1c1c22"/><circle cx="182" cy="128" r="0.9" fill="#1c1c22"/><circle cx="191" cy="128" r="0.9" fill="#1c1c22"/><circle cx="200" cy="128" r="0.9" fill="#1c1c22"/><circle cx="209" cy="128" r="0.9" fill="#1c1c22"/><circle cx="218" cy="128" r="0.9" fill="#1c1c22"/><circle cx="227" cy="128" r="0.9" fill="#1c1c22"/><circle cx="236" cy="128" r="0.9" fill="#1c1c22"/><circle cx="245" cy="128" r="0.9" fill="#1c1c22"/><circle cx="254" cy="128" r="0.9" fill="#1c1c22"/><circle cx="263" cy="128" r="0.9" fill="#1c1c22"/><circle cx="272" cy="128" r="0.9" fill="#1c1c22"/><circle cx="281" cy="128" r="0.9" fill="#1c1c22"/><circle cx="290" cy="128" r="0.9" fill="#1c1c22"/><circle cx="299" cy="128" r="0.9" fill="#1c1c22"/><circle cx="308" cy="128" r="0.9" fill="#1c1c22"/><circle cx="317" cy="128" r="0.9" fill="#1c1c22"/><circle cx="326" cy="128" r="0.9" fill="#1c1c22"/><circle cx="335" cy="128" r="0.9" fill="#1c1c22"/><circle cx="344" cy="128" r="0.9" fill="#1c1c22"/><circle cx="353" cy="128" r="0.9" fill="#1c1c22"/><circle cx="362" cy="128" r="0.9" fill="#1c1c22"/><circle cx="371" cy="128" r="0.9" fill="#1c1c22"/><circle cx="380" cy="128" r="0.9" fill="#1c1c22"/><circle cx="389" cy="128" r="0.9" fill="#1c1c22"/><circle cx="398" cy="128" r="0.9" fill="#1c1c22"/><circle cx="407" cy="128" r="0.9" fill="#1c1c22"/><circle cx="416" cy="128" r="0.9" fill="#1c1c22"/><circle cx="425" cy="128" r="0.9" fill="#1c1c22"/><circle cx="434" cy="128" r="0.9" fill="#1c1c22"/><circle cx="443" cy="128" r="0.9" fill="#1c1c22"/><circle cx="452" cy="128" r="0.9" fill="#1c1c22"/><circle cx="461" cy="128" r="0.9" fill="#1c1c22"/><circle cx="470" cy="128" r="0.9" fill="#1c1c22"/><circle cx="479" cy="128" r="0.9" fill="#1c1c22"/><circle cx="488" cy="128" r="0.9" fill="#1c1c22"/><circle cx="497" cy="128" r="0.9" fill="#1c1c22"/><circle cx="110" cy="137" r="0.9" fill="#1c1c22"/><circle cx="119" cy="137" r="0.9" fill="#1c1c22"/><circle cx="128" cy="137" r="0.9" fill="#1c1c22"/><circle cx="137" cy="137" r="0.9" fill="#1c1c22"/><circle cx="146" cy="137" r="0.9" fill="#1c1c22"/><circle cx="155" cy="137" r="0.9" fill="#1c1c22"/><circle cx="164" cy="137" r="0.9" fill="#1c1c22"/><circle cx="173" cy="137" r="0.9" fill="#1c1c22"/><circle cx="182" cy="137" r="0.9" fill="#1c1c22"/><circle cx="191" cy="137" r="0.9" fill="#1c1c22"/><circle cx="200" cy="137" r="0.9" fill="#1c1c22"/><circle cx="209" cy="137" r="0.9" fill="#1c1c22"/><circle cx="218" cy="137" r="0.9" fill="#1c1c22"/><circle cx="227" cy="137" r="0.9" fill="#1c1c22"/><circle cx="236" cy="137" r="0.9" fill="#1c1c22"/><circle cx="245" cy="137" r="0.9" fill="#1c1c22"/><circle cx="254" cy="137" r="0.9" fill="#1c1c22"/><circle cx="263" cy="137" r="0.9" fill="#1c1c22"/><circle cx="272" cy="137" r="0.9" fill="#1c1c22"/><circle cx="281" cy="137" r="0.9" fill="#1c1c22"/><circle cx="290" cy="137" r="0.9" fill="#1c1c22"/><circle cx="299" cy="137" r="0.9" fill="#1c1c22"/><circle cx="308" cy="137" r="0.9" fill="#1c1c22"/><circle cx="317" cy="137" r="0.9" fill="#1c1c22"/><circle cx="326" cy="137" r="0.9" fill="#1c1c22"/><circle cx="335" cy="137" r="0.9" fill="#1c1c22"/><circle cx="344" cy="137" r="0.9" fill="#1c1c22"/><circle cx="353" cy="137" r="0.9" fill="#1c1c22"/><circle cx="362" cy="137" r="0.9" fill="#1c1c22"/><circle cx="371" cy="137" r="0.9" fill="#1c1c22"/><circle cx="380" cy="137" r="0.9" fill="#1c1c22"/><circle cx="389" cy="137" r="0.9" fill="#1c1c22"/><circle cx="398" cy="137" r="0.9" fill="#1c1c22"/><circle cx="407" cy="137" r="0.9" fill="#1c1c22"/><circle cx="416" cy="137" r="0.9" fill="#1c1c22"/><circle cx="425" cy="137" r="0.9" fill="#1c1c22"/><circle cx="434" cy="137" r="0.9" fill="#1c1c22"/><circle cx="443" cy="137" r="0.9" fill="#1c1c22"/><circle cx="452" cy="137" r="0.9" fill="#1c1c22"/><circle cx="461" cy="137" r="0.9" fill="#1c1c22"/><circle cx="470" cy="137" r="0.9" fill="#1c1c22"/><circle cx="479" cy="137" r="0.9" fill="#1c1c22"/><circle cx="488" cy="137" r="0.9" fill="#1c1c22"/><circle cx="497" cy="137" r="0.9" fill="#1c1c22"/><circle cx="110" cy="146" r="0.9" fill="#1c1c22"/><circle cx="119" cy="146" r="0.9" fill="#1c1c22"/><circle cx="128" cy="146" r="0.9" fill="#1c1c22"/><circle cx="137" cy="146" r="0.9" fill="#1c1c22"/><circle cx="146" cy="146" r="0.9" fill="#1c1c22"/><circle cx="155" cy="146" r="0.9" fill="#1c1c22"/><circle cx="164" cy="146" r="0.9" fill="#1c1c22"/><circle cx="173" cy="146" r="0.9" fill="#1c1c22"/><circle cx="182" cy="146" r="0.9" fill="#1c1c22"/><circle cx="191" cy="146" r="0.9" fill="#1c1c22"/><circle cx="200" cy="146" r="0.9" fill="#1c1c22"/><circle cx="209" cy="146" r="0.9" fill="#1c1c22"/><circle cx="218" cy="146" r="0.9" fill="#1c1c22"/><circle cx="227" cy="146" r="0.9" fill="#1c1c22"/><circle cx="236" cy="146" r="0.9" fill="#1c1c22"/><circle cx="245" cy="146" r="0.9" fill="#1c1c22"/><circle cx="254" cy="146" r="0.9" fill="#1c1c22"/><circle cx="263" cy="146" r="0.9" fill="#1c1c22"/><circle cx="272" cy="146" r="0.9" fill="#1c1c22"/><circle cx="281" cy="146" r="0.9" fill="#1c1c22"/><circle cx="290" cy="146" r="0.9" fill="#1c1c22"/><circle cx="299" cy="146" r="0.9" fill="#1c1c22"/><circle cx="308" cy="146" r="0.9" fill="#1c1c22"/><circle cx="317" cy="146" r="0.9" fill="#1c1c22"/><circle cx="326" cy="146" r="0.9" fill="#1c1c22"/><circle cx="335" cy="146" r="0.9" fill="#1c1c22"/><circle cx="344" cy="146" r="0.9" fill="#1c1c22"/><circle cx="353" cy="146" r="0.9" fill="#1c1c22"/><circle cx="362" cy="146" r="0.9" fill="#1c1c22"/><circle cx="371" cy="146" r="0.9" fill="#1c1c22"/><circle cx="380" cy="146" r="0.9" fill="#1c1c22"/><circle cx="389" cy="146" r="0.9" fill="#1c1c22"/><circle cx="398" cy="146" r="0.9" fill="#1c1c22"/><circle cx="407" cy="146" r="0.9" fill="#1c1c22"/><circle cx="416" cy="146" r="0.9" fill="#1c1c22"/><circle cx="425" cy="146" r="0.9" fill="#1c1c22"/><circle cx="434" cy="146" r="0.9" fill="#1c1c22"/><circle cx="443" cy="146" r="0.9" fill="#1c1c22"/><circle cx="452" cy="146" r="0.9" fill="#1c1c22"/><circle cx="461" cy="146" r="0.9" fill="#1c1c22"/><circle cx="470" cy="146" r="0.9" fill="#1c1c22"/><circle cx="479" cy="146" r="0.9" fill="#1c1c22"/><circle cx="488" cy="146" r="0.9" fill="#1c1c22"/><circle cx="497" cy="146" r="0.9" fill="#1c1c22"/><circle cx="110" cy="155" r="0.9" fill="#1c1c22"/><circle cx="119" cy="155" r="0.9" fill="#1c1c22"/><circle cx="128" cy="155" r="0.9" fill="#1c1c22"/><circle cx="137" cy="155" r="0.9" fill="#1c1c22"/><circle cx="146" cy="155" r="0.9" fill="#1c1c22"/><circle cx="155" cy="155" r="0.9" fill="#1c1c22"/><circle cx="164" cy="155" r="0.9" fill="#1c1c22"/><circle cx="173" cy="155" r="0.9" fill="#1c1c22"/><circle cx="182" cy="155" r="0.9" fill="#1c1c22"/><circle cx="191" cy="155" r="0.9" fill="#1c1c22"/><circle cx="200" cy="155" r="0.9" fill="#1c1c22"/><circle cx="209" cy="155" r="0.9" fill="#1c1c22"/><circle cx="218" cy="155" r="0.9" fill="#1c1c22"/><circle cx="227" cy="155" r="0.9" fill="#1c1c22"/><circle cx="236" cy="155" r="0.9" fill="#1c1c22"/><circle cx="245" cy="155" r="0.9" fill="#1c1c22"/><circle cx="254" cy="155" r="0.9" fill="#1c1c22"/><circle cx="263" cy="155" r="0.9" fill="#1c1c22"/><circle cx="272" cy="155" r="0.9" fill="#1c1c22"/><circle cx="281" cy="155" r="0.9" fill="#1c1c22"/><circle cx="290" cy="155" r="0.9" fill="#1c1c22"/><circle cx="299" cy="155" r="0.9" fill="#1c1c22"/><circle cx="308" cy="155" r="0.9" fill="#1c1c22"/><circle cx="317" cy="155" r="0.9" fill="#1c1c22"/><circle cx="326" cy="155" r="0.9" fill="#1c1c22"/><circle cx="335" cy="155" r="0.9" fill="#1c1c22"/><circle cx="344" cy="155" r="0.9" fill="#1c1c22"/><circle cx="353" cy="155" r="0.9" fill="#1c1c22"/><circle cx="362" cy="155" r="0.9" fill="#1c1c22"/><circle cx="371" cy="155" r="0.9" fill="#1c1c22"/><circle cx="380" cy="155" r="0.9" fill="#1c1c22"/><circle cx="389" cy="155" r="0.9" fill="#1c1c22"/><circle cx="398" cy="155" r="0.9" fill="#1c1c22"/><circle cx="407" cy="155" r="0.9" fill="#1c1c22"/><circle cx="416" cy="155" r="0.9" fill="#1c1c22"/><circle cx="425" cy="155" r="0.9" fill="#1c1c22"/><circle cx="434" cy="155" r="0.9" fill="#1c1c22"/><circle cx="443" cy="155" r="0.9" fill="#1c1c22"/><circle cx="452" cy="155" r="0.9" fill="#1c1c22"/><circle cx="461" cy="155" r="0.9" fill="#1c1c22"/><circle cx="470" cy="155" r="0.9" fill="#1c1c22"/><circle cx="479" cy="155" r="0.9" fill="#1c1c22"/><circle cx="488" cy="155" r="0.9" fill="#1c1c22"/><circle cx="497" cy="155" r="0.9" fill="#1c1c22"/><rect x="275" y="111" width="60" height="15" fill="#ffffff"/><text x="305" y="122" text-anchor="middle" font-family="sans-serif" font-size="12" fill="#1c1c22">下層路盤</text><rect x="233" y="128" width="144" height="13" fill="#ffffff"/><text x="305" y="137" text-anchor="middle" font-family="sans-serif" font-size="10" fill="#63636e">クラッシャラン C-40 t=300</text></g>
<g data-node="joban" data-pinned="false" data-shape="rect"><rect x="105" y="66" width="400" height="30" fill="#ffffff" stroke="#1c1c22" stroke-width="1"/><circle cx="110" cy="71" r="0.9" fill="#1c1c22"/><circle cx="119" cy="71" r="0.9" fill="#1c1c22"/><circle cx="128" cy="71" r="0.9" fill="#1c1c22"/><circle cx="137" cy="71" r="0.9" fill="#1c1c22"/><circle cx="146" cy="71" r="0.9" fill="#1c1c22"/><circle cx="155" cy="71" r="0.9" fill="#1c1c22"/><circle cx="164" cy="71" r="0.9" fill="#1c1c22"/><circle cx="173" cy="71" r="0.9" fill="#1c1c22"/><circle cx="182" cy="71" r="0.9" fill="#1c1c22"/><circle cx="191" cy="71" r="0.9" fill="#1c1c22"/><circle cx="200" cy="71" r="0.9" fill="#1c1c22"/><circle cx="209" cy="71" r="0.9" fill="#1c1c22"/><circle cx="218" cy="71" r="0.9" fill="#1c1c22"/><circle cx="227" cy="71" r="0.9" fill="#1c1c22"/><circle cx="236" cy="71" r="0.9" fill="#1c1c22"/><circle cx="245" cy="71" r="0.9" fill="#1c1c22"/><circle cx="254" cy="71" r="0.9" fill="#1c1c22"/><circle cx="263" cy="71" r="0.9" fill="#1c1c22"/><circle cx="272" cy="71" r="0.9" fill="#1c1c22"/><circle cx="281" cy="71" r="0.9" fill="#1c1c22"/><circle cx="290" cy="71" r="0.9" fill="#1c1c22"/><circle cx="299" cy="71" r="0.9" fill="#1c1c22"/><circle cx="308" cy="71" r="0.9" fill="#1c1c22"/><circle cx="317" cy="71" r="0.9" fill="#1c1c22"/><circle cx="326" cy="71" r="0.9" fill="#1c1c22"/><circle cx="335" cy="71" r="0.9" fill="#1c1c22"/><circle cx="344" cy="71" r="0.9" fill="#1c1c22"/><circle cx="353" cy="71" r="0.9" fill="#1c1c22"/><circle cx="362" cy="71" r="0.9" fill="#1c1c22"/><circle cx="371" cy="71" r="0.9" fill="#1c1c22"/><circle cx="380" cy="71" r="0.9" fill="#1c1c22"/><circle cx="389" cy="71" r="0.9" fill="#1c1c22"/><circle cx="398" cy="71" r="0.9" fill="#1c1c22"/><circle cx="407" cy="71" r="0.9" fill="#1c1c22"/><circle cx="416" cy="71" r="0.9" fill="#1c1c22"/><circle cx="425" cy="71" r="0.9" fill="#1c1c22"/><circle cx="434" cy="71" r="0.9" fill="#1c1c22"/><circle cx="443" cy="71" r="0.9" fill="#1c1c22"/><circle cx="452" cy="71" r="0.9" fill="#1c1c22"/><circle cx="461" cy="71" r="0.9" fill="#1c1c22"/><circle cx="470" cy="71" r="0.9" fill="#1c1c22"/><circle cx="479" cy="71" r="0.9" fill="#1c1c22"/><circle cx="488" cy="71" r="0.9" fill="#1c1c22"/><circle cx="497" cy="71" r="0.9" fill="#1c1c22"/><circle cx="110" cy="80" r="0.9" fill="#1c1c22"/><circle cx="119" cy="80" r="0.9" fill="#1c1c22"/><circle cx="128" cy="80" r="0.9" fill="#1c1c22"/><circle cx="137" cy="80" r="0.9" fill="#1c1c22"/><circle cx="146" cy="80" r="0.9" fill="#1c1c22"/><circle cx="155" cy="80" r="0.9" fill="#1c1c22"/><circle cx="164" cy="80" r="0.9" fill="#1c1c22"/><circle cx="173" cy="80" r="0.9" fill="#1c1c22"/><circle cx="182" cy="80" r="0.9" fill="#1c1c22"/><circle cx="191" cy="80" r="0.9" fill="#1c1c22"/><circle cx="200" cy="80" r="0.9" fill="#1c1c22"/><circle cx="209" cy="80" r="0.9" fill="#1c1c22"/><circle cx="218" cy="80" r="0.9" fill="#1c1c22"/><circle cx="227" cy="80" r="0.9" fill="#1c1c22"/><circle cx="236" cy="80" r="0.9" fill="#1c1c22"/><circle cx="245" cy="80" r="0.9" fill="#1c1c22"/><circle cx="254" cy="80" r="0.9" fill="#1c1c22"/><circle cx="263" cy="80" r="0.9" fill="#1c1c22"/><circle cx="272" cy="80" r="0.9" fill="#1c1c22"/><circle cx="281" cy="80" r="0.9" fill="#1c1c22"/><circle cx="290" cy="80" r="0.9" fill="#1c1c22"/><circle cx="299" cy="80" r="0.9" fill="#1c1c22"/><circle cx="308" cy="80" r="0.9" fill="#1c1c22"/><circle cx="317" cy="80" r="0.9" fill="#1c1c22"/><circle cx="326" cy="80" r="0.9" fill="#1c1c22"/><circle cx="335" cy="80" r="0.9" fill="#1c1c22"/><circle cx="344" cy="80" r="0.9" fill="#1c1c22"/><circle cx="353" cy="80" r="0.9" fill="#1c1c22"/><circle cx="362" cy="80" r="0.9" fill="#1c1c22"/><circle cx="371" cy="80" r="0.9" fill="#1c1c22"/><circle cx="380" cy="80" r="0.9" fill="#1c1c22"/><circle cx="389" cy="80" r="0.9" fill="#1c1c22"/><circle cx="398" cy="80" r="0.9" fill="#1c1c22"/><circle cx="407" cy="80" r="0.9" fill="#1c1c22"/><circle cx="416" cy="80" r="0.9" fill="#1c1c22"/><circle cx="425" cy="80" r="0.9" fill="#1c1c22"/><circle cx="434" cy="80" r="0.9" fill="#1c1c22"/><circle cx="443" cy="80" r="0.9" fill="#1c1c22"/><circle cx="452" cy="80" r="0.9" fill="#1c1c22"/><circle cx="461" cy="80" r="0.9" fill="#1c1c22"/><circle cx="470" cy="80" r="0.9" fill="#1c1c22"/><circle cx="479" cy="80" r="0.9" fill="#1c1c22"/><circle cx="488" cy="80" r="0.9" fill="#1c1c22"/><circle cx="497" cy="80" r="0.9" fill="#1c1c22"/><circle cx="110" cy="89" r="0.9" fill="#1c1c22"/><circle cx="119" cy="89" r="0.9" fill="#1c1c22"/><circle cx="128" cy="89" r="0.9" fill="#1c1c22"/><circle cx="137" cy="89" r="0.9" fill="#1c1c22"/><circle cx="146" cy="89" r="0.9" fill="#1c1c22"/><circle cx="155" cy="89" r="0.9" fill="#1c1c22"/><circle cx="164" cy="89" r="0.9" fill="#1c1c22"/><circle cx="173" cy="89" r="0.9" fill="#1c1c22"/><circle cx="182" cy="89" r="0.9" fill="#1c1c22"/><circle cx="191" cy="89" r="0.9" fill="#1c1c22"/><circle cx="200" cy="89" r="0.9" fill="#1c1c22"/><circle cx="209" cy="89" r="0.9" fill="#1c1c22"/><circle cx="218" cy="89" r="0.9" fill="#1c1c22"/><circle cx="227" cy="89" r="0.9" fill="#1c1c22"/><circle cx="236" cy="89" r="0.9" fill="#1c1c22"/><circle cx="245" cy="89" r="0.9" fill="#1c1c22"/><circle cx="254" cy="89" r="0.9" fill="#1c1c22"/><circle cx="263" cy="89" r="0.9" fill="#1c1c22"/><circle cx="272" cy="89" r="0.9" fill="#1c1c22"/><circle cx="281" cy="89" r="0.9" fill="#1c1c22"/><circle cx="290" cy="89" r="0.9" fill="#1c1c22"/><circle cx="299" cy="89" r="0.9" fill="#1c1c22"/><circle cx="308" cy="89" r="0.9" fill="#1c1c22"/><circle cx="317" cy="89" r="0.9" fill="#1c1c22"/><circle cx="326" cy="89" r="0.9" fill="#1c1c22"/><circle cx="335" cy="89" r="0.9" fill="#1c1c22"/><circle cx="344" cy="89" r="0.9" fill="#1c1c22"/><circle cx="353" cy="89" r="0.9" fill="#1c1c22"/><circle cx="362" cy="89" r="0.9" fill="#1c1c22"/><circle cx="371" cy="89" r="0.9" fill="#1c1c22"/><circle cx="380" cy="89" r="0.9" fill="#1c1c22"/><circle cx="389" cy="89" r="0.9" fill="#1c1c22"/><circle cx="398" cy="89" r="0.9" fill="#1c1c22"/><circle cx="407" cy="89" r="0.9" fill="#1c1c22"/><circle cx="416" cy="89" r="0.9" fill="#1c1c22"/><circle cx="425" cy="89" r="0.9" fill="#1c1c22"/><circle cx="434" cy="89" r="0.9" fill="#1c1c22"/><circle cx="443" cy="89" r="0.9" fill="#1c1c22"/><circle cx="452" cy="89" r="0.9" fill="#1c1c22"/><circle cx="461" cy="89" r="0.9" fill="#1c1c22"/><circle cx="470" cy="89" r="0.9" fill="#1c1c22"/><circle cx="479" cy="89" r="0.9" fill="#1c1c22"/><circle cx="488" cy="89" r="0.9" fill="#1c1c22"/><circle cx="497" cy="89" r="0.9" fill="#1c1c22"/><rect x="193" y="74" width="224" height="15" fill="#ffffff"/><text x="305" y="85" text-anchor="middle" font-family="sans-serif" font-size="12" fill="#1c1c22">上層路盤　粒度調整砕石 M-25 t=150</text></g>
<g data-node="hyoso" data-pinned="false" data-shape="rect"><rect x="105" y="46" width="400" height="10" fill="#ffffff" stroke="#1c1c22" stroke-width="1"/><rect x="105" y="46" width="400" height="10" fill="#1c1c22" fill-opacity="0.82"/><text x="305" y="55" text-anchor="middle" font-family="sans-serif" font-size="12" fill="#ffffff">表層　密粒度アスコン 13F t=50</text></g>
<g data-node="kiso" data-pinned="false" data-shape="rect"><rect x="105" y="56" width="400" height="10" fill="#ffffff" stroke="#1c1c22" stroke-width="1"/><rect x="105" y="56" width="400" height="10" fill="#1c1c22" fill-opacity="0.82"/><text x="305" y="65" text-anchor="middle" font-family="sans-serif" font-size="12" fill="#ffffff">基層　粗粒度アスコン 20 t=50</text></g>





<g data-grid="true"><line x1="105" y1="16" x2="105" y2="434" stroke="#1c1c22" stroke-width="1" stroke-dasharray="14 3 3 3"/><circle cx="105" cy="2" r="12" fill="#ffffff" stroke="#1c1c22"/><text x="105" y="6" text-anchor="middle" font-family="sans-serif" font-size="11" fill="#63636e">X1</text><circle cx="105" cy="448" r="12" fill="#ffffff" stroke="#1c1c22"/><text x="105" y="452" text-anchor="middle" font-family="sans-serif" font-size="11" fill="#63636e">X1</text><line x1="505" y1="16" x2="505" y2="434" stroke="#1c1c22" stroke-width="1" stroke-dasharray="14 3 3 3"/><circle cx="505" cy="2" r="12" fill="#ffffff" stroke="#1c1c22"/><text x="505" y="6" text-anchor="middle" font-family="sans-serif" font-size="11" fill="#63636e">X2</text><circle cx="505" cy="448" r="12" fill="#ffffff" stroke="#1c1c22"/><text x="505" y="452" text-anchor="middle" font-family="sans-serif" font-size="11" fill="#63636e">X2</text><line x1="27" y1="46" x2="535" y2="46" stroke="#1c1c22" stroke-width="1" stroke-dasharray="14 3 3 3"/><path d="M 21 46 L 10 40 L 10 52 Z" fill="#1c1c22"/><text x="8" y="41" text-anchor="end" font-family="sans-serif" font-size="10" fill="#63636e">FH±0</text><path d="M 541 46 L 552 40 L 552 52 Z" fill="#1c1c22"/><text x="554" y="41" text-anchor="start" font-family="sans-serif" font-size="10" fill="#63636e">FH±0</text><line x1="27" y1="66" x2="535" y2="66" stroke="#1c1c22" stroke-width="1" stroke-dasharray="14 3 3 3"/><path d="M 21 66 L 10 60 L 10 72 Z" fill="#1c1c22"/><text x="8" y="61" text-anchor="end" font-family="sans-serif" font-size="10" fill="#63636e">路盤上 -100</text><path d="M 541 66 L 552 60 L 552 72 Z" fill="#1c1c22"/><text x="554" y="61" text-anchor="start" font-family="sans-serif" font-size="10" fill="#63636e">路盤上 -100</text><line x1="27" y1="156" x2="535" y2="156" stroke="#1c1c22" stroke-width="1" stroke-dasharray="14 3 3 3"/><path d="M 21 156 L 10 150 L 10 162 Z" fill="#1c1c22"/><text x="8" y="151" text-anchor="end" font-family="sans-serif" font-size="10" fill="#63636e">路床面 -550</text><path d="M 541 156 L 552 150 L 552 162 Z" fill="#1c1c22"/><text x="554" y="151" text-anchor="start" font-family="sans-serif" font-size="10" fill="#63636e">路床面 -550</text><line x1="27" y1="356" x2="535" y2="356" stroke="#1c1c22" stroke-width="1" stroke-dasharray="14 3 3 3"/><path d="M 21 356 L 10 350 L 10 362 Z" fill="#1c1c22"/><text x="8" y="351" text-anchor="end" font-family="sans-serif" font-size="10" fill="#63636e">掘削底 -1550</text><path d="M 541 356 L 552 350 L 552 362 Z" fill="#1c1c22"/><text x="554" y="351" text-anchor="start" font-family="sans-serif" font-size="10" fill="#63636e">掘削底 -1550</text></g>
<g data-dimensions="true"><line x1="105" y1="382" x2="505" y2="382" stroke="#1c1c22" stroke-width="1"/><line x1="101" y1="386" x2="109" y2="378" stroke="#1c1c22" stroke-width="1"/><line x1="501" y1="386" x2="509" y2="378" stroke="#1c1c22" stroke-width="1"/><rect x="290" y="367" width="30" height="13" fill="#ffffff"/><text x="305" y="377" text-anchor="middle" font-family="sans-serif" font-size="10" fill="#63636e">2000</text><line x1="79" y1="46" x2="79" y2="66" stroke="#1c1c22" stroke-width="1"/><line x1="75" y1="42" x2="83" y2="50" stroke="#1c1c22" stroke-width="1"/><line x1="75" y1="62" x2="83" y2="70" stroke="#1c1c22" stroke-width="1"/><rect x="63" y="44" width="13" height="24" fill="#ffffff"/><text x="74" y="56" text-anchor="middle" font-family="sans-serif" font-size="10" fill="#63636e" transform="rotate(-90 74 56)">100</text><line x1="79" y1="66" x2="79" y2="156" stroke="#1c1c22" stroke-width="1"/><line x1="75" y1="62" x2="83" y2="70" stroke="#1c1c22" stroke-width="1"/><line x1="75" y1="152" x2="83" y2="160" stroke="#1c1c22" stroke-width="1"/><rect x="63" y="99" width="13" height="24" fill="#ffffff"/><text x="74" y="111" text-anchor="middle" font-family="sans-serif" font-size="10" fill="#63636e" transform="rotate(-90 74 111)">450</text><line x1="79" y1="156" x2="79" y2="356" stroke="#1c1c22" stroke-width="1"/><line x1="75" y1="152" x2="83" y2="160" stroke="#1c1c22" stroke-width="1"/><line x1="75" y1="352" x2="83" y2="360" stroke="#1c1c22" stroke-width="1"/><rect x="63" y="241" width="13" height="30" fill="#ffffff"/><text x="74" y="256" text-anchor="middle" font-family="sans-serif" font-size="10" fill="#63636e" transform="rotate(-90 74 256)">1000</text><line x1="55" y1="46" x2="55" y2="356" stroke="#1c1c22" stroke-width="1"/><line x1="51" y1="42" x2="59" y2="50" stroke="#1c1c22" stroke-width="1"/><line x1="51" y1="352" x2="59" y2="360" stroke="#1c1c22" stroke-width="1"/><rect x="39" y="186" width="13" height="30" fill="#ffffff"/><text x="50" y="201" text-anchor="middle" font-family="sans-serif" font-size="10" fill="#63636e" transform="rotate(-90 50 201)">1550</text></g>
</svg>