<svg xmlns="http://www.w3.org/2000/svg" width="918" height="480" viewBox="0 0 918 480">
<defs><marker id="arrow" viewBox="0 0 10 10" refX="9" refY="5" markerWidth="6" markerHeight="6" orient="auto"><path d="M 0 0 L 10 5 L 0 10 z" fill="#a0a0ab"/></marker></defs>
<g data-edge="kian&gt;kacho" data-pinned="false"><path d="M 130.7 192 L 130.7 334 L 204 334 L 204 50 L 534.3 50 L 534.3 126.7" fill="none" stroke="#a0a0ab" stroke-width="1" marker-end="url(#arrow)"/></g>
<g data-edge="kacho&gt;bucho" data-pinned="false"><path d="M 561 186.7 L 561 248" fill="none" stroke="#a0a0ab" stroke-width="1" marker-end="url(#arrow)"/></g>
<g data-edge="bucho&gt;keiri" data-pinned="false"><path d="M 595.3 324 L 595.3 388" fill="none" stroke="#a0a0ab" stroke-width="1" marker-end="url(#arrow)"/><text x="595" y="350" text-anchor="middle" font-family="sans-serif" font-size="11" fill="#a0a0ab">100 万円未満</text></g>
<g data-edge="bucho&gt;yakuin" data-pinned="false"><path d="M 526.7 324 L 526.7 334 L 405.3 334 L 405.3 380" fill="none" stroke="#a0a0ab" stroke-width="1" marker-end="url(#arrow)"/><text x="448" y="351" text-anchor="middle" font-family="sans-serif" font-size="11" fill="#a0a0ab">100 万円以上</text></g>
<g data-edge="keiri&gt;kaketsu" data-pinned="false"><path d="M 595.3 448 L 595.3 522 L 695.3 522 L 695.3 40 L 838 40 L 838 116" fill="none" stroke="#a0a0ab" stroke-width="1" marker-end="url(#arrow)"/></g>
<g data-edge="yakuin&gt;kaketsu" data-pinned="false"><path d="M 405.3 456 L 405.3 532 L 706.3 532 L 706.3 50 L 782.7 50 L 782.7 116" fill="none" stroke="#a0a0ab" stroke-width="1" marker-end="url(#arrow)"/></g>
<g data-edge="kacho&gt;sashimodoshi" data-pinned="false"><path d="M 507.7 186.7 L 507.7 202 L 364 202 L 364 248" fill="none" stroke="#a0a0ab" stroke-width="1" marker-end="url(#arrow)"/><text x="421" y="196" text-anchor="middle" font-family="sans-serif" font-size="11" fill="#a0a0ab">要件不足</text></g>
<g data-edge="sashimodoshi&gt;kian" data-pinned="false"><path d="M 300 248 L 300 70 L 215 70 L 215 344 L 120.7 344 L 120.7 202 L 77.3 202 L 77.3 192" fill="none" stroke="#a0a0ab" stroke-width="1" marker-end="url(#arrow)"/></g>
<g data-node="kian" data-pinned="false" data-shape="rect"><rect x="24" y="116" width="160" height="76" rx="6" fill="#22222a" stroke="#ffffff" stroke-width="1"/><text x="104" y="152" text-anchor="middle" font-family="sans-serif" font-size="15" fill="#f4f4f6">起案</text><text x="104" y="170" text-anchor="middle" font-family="sans-serif" font-size="11" fill="#a0a0ab">担当者</text></g>
<g data-node="kacho" data-pinned="false" data-shape="rect"><rect x="454" y="127" width="160" height="60" rx="6" fill="#22222a" stroke="#ffffff" stroke-width="1"/><text x="534" y="162" text-anchor="middle" font-family="sans-serif" font-size="15" fill="#f4f4f6">課長</text></g>
<g data-node="bucho" data-pinned="false" data-appearance="primary" data-shape="rect"><rect x="458" y="248" width="206" height="76" rx="6" fill="#1e1e3a" stroke="#7c7cf0" stroke-width="1"/><text x="561" y="284" text-anchor="middle" font-family="sans-serif" font-size="15" fill="#f4f4f6">部長</text><text x="561" y="302" text-anchor="middle" font-family="sans-serif" font-size="11" fill="#a0a0ab">100 万円以上はここで止まる</text></g>
<g data-node="keiri" data-pinned="false" data-shape="rect"><rect x="515" y="388" width="160" height="60" rx="6" fill="#22222a" stroke="#ffffff" stroke-width="1"/><text x="595" y="423" text-anchor="middle" font-family="sans-serif" font-size="15" fill="#f4f4f6">経理</text></g>
<g data-node="yakuin" data-pinned="false" data-shape="rect"><rect x="325" y="380" width="160" height="76" rx="6" fill="#22222a" stroke="#ffffff" stroke-width="1"/><text x="405" y="416" text-anchor="middle" font-family="sans-serif" font-size="15" fill="#f4f4f6">役員会</text><text x="405" y="434" text-anchor="middle" font-family="sans-serif" font-size="11" fill="#a0a0ab">月 1 回</text></g>
<g data-node="kaketsu" data-pinned="false" data-shape="stacked"><rect x="733" y="116" width="160" height="60" rx="4" fill="#22222a" stroke="#ffffff" stroke-width="1"/><rect x="727" y="122" width="160" height="60" rx="4" fill="#22222a" stroke="#ffffff" stroke-width="1"/><text x="810" y="157" text-anchor="middle" font-family="sans-serif" font-size="15" fill="#f4f4f6">可決・保管</text></g>
<g data-node="sashimodoshi" data-pinned="false" data-shape="queue"><rect x="236" y="248" width="192" height="60" rx="4" fill="#22222a" stroke="#ffffff" stroke-width="1"/><line x1="421" y1="248" x2="421" y2="308" stroke="#ffffff" stroke-width="1"/><line x1="414" y1="248" x2="414" y2="308" stroke="#ffffff" stroke-width="1"/><line x1="407" y1="248" x2="407" y2="308" stroke="#ffffff" stroke-width="1"/><text x="332" y="283" text-anchor="middle" font-family="sans-serif" font-size="15" fill="#f4f4f6">差し戻し</text></g>
</svg>