<svg xmlns="http://www.w3.org/2000/svg" width="1264" height="978" viewBox="0 0 1264 978">
<title>板金の展開図 —— 足しただけでは合わない</title>
<defs><marker id="arrow" viewBox="0 0 10 10" refX="9" refY="5" markerWidth="6" markerHeight="6" orient="auto"><path d="M 0 0 L 10 5 L 0 10 z" fill="#a0a0ab"/></marker></defs>
<rect data-paper="1" x="0" y="0" width="1264" height="978" fill="#0f0f13"/>
<g data-node="r1" data-pinned="false" data-shape="rect"></g>
<g data-node="r2" data-pinned="false" data-shape="rect"></g>
<g data-node="r3" data-pinned="false" data-shape="rect"></g>
<g data-node="r4" data-pinned="false" data-shape="rect"></g>
<g data-node="r5" data-pinned="false" data-shape="rect"></g>
<g data-node="r6" data-pinned="false" data-shape="rect"></g>
<g data-node="r7" data-pinned="false" data-shape="rect"></g>
<g data-node="calc" data-pinned="false" data-shape="rect"><rect x="220" y="570" width="420" height="40" fill="#22222a" stroke="#ffffff" stroke-width="1"/></g>
<g data-node="t1" data-pinned="false" data-shape="rect"></g>
<g data-node="t2" data-pinned="false" data-shape="rect"></g>
<g data-node="t3" data-pinned="false" data-shape="rect"></g>
<g data-node="c_n" data-pinned="false" data-shape="rect"></g>
<g data-node="d0_1" data-pinned="false" data-shape="rect"><rect x="950" y="502" width="290" height="28" fill="#22222a" stroke="#ffffff" stroke-width="1"/><rect x="950" y="502" width="290" height="28" fill="#ffffff" fill-opacity="0.82"/></g>
<g data-node="d1_1" data-pinned="false" data-shape="rect"><rect x="950" y="530" width="290" height="28" fill="#22222a" stroke="#ffffff" stroke-width="1"/></g>
<g data-node="d2_1" data-pinned="false" data-shape="rect"><rect x="950" y="558" width="290" height="28" fill="#22222a" stroke="#ffffff" stroke-width="1"/></g>
<g data-node="d3_1" data-pinned="false" data-shape="rect"><rect x="950" y="586" width="290" height="28" fill="#22222a" stroke="#ffffff" stroke-width="1"/></g>
<g data-node="d4_1" data-pinned="false" data-shape="rect"><rect x="950" y="614" width="290" height="28" fill="#22222a" stroke="#ffffff" stroke-width="1"/></g>
<g data-node="d5_1" data-pinned="false" data-shape="rect"><rect x="950" y="642" width="290" height="28" fill="#22222a" stroke="#ffffff" stroke-width="1"/></g>
<g data-node="m_n" data-pinned="false" data-shape="rect"></g>
<g data-node="m_n2" data-pinned="false" data-shape="rect"></g>
<g data-node="m_n3" data-pinned="false" data-shape="rect"></g>
<g data-node="m_n4" data-pinned="false" data-shape="rect"></g>
<g data-node="d_n" data-pinned="false" data-shape="rect"></g>
<g data-node="d_n2" data-pinned="false" data-shape="rect"></g>
<g data-node="fl" data-pinned="false" data-shape="rect"></g>
<g data-node="f_n" data-pinned="false" data-shape="rect"></g>
<g data-node="d0_0" data-pinned="false" data-shape="rect"><rect x="800" y="502" width="150" height="28" fill="#22222a" stroke="#ffffff" stroke-width="1"/><rect x="800" y="502" width="150" height="28" fill="#ffffff" fill-opacity="0.82"/></g>
<g data-node="d1_0" data-pinned="false" data-shape="rect"><rect x="800" y="530" width="150" height="28" fill="#22222a" stroke="#ffffff" stroke-width="1"/></g>
<g data-node="d2_0" data-pinned="false" data-shape="rect"><rect x="800" y="558" width="150" height="28" fill="#22222a" stroke="#ffffff" stroke-width="1"/></g>
<g data-node="d3_0" data-pinned="false" data-shape="rect"><rect x="800" y="586" width="150" height="28" fill="#22222a" stroke="#ffffff" stroke-width="1"/></g>
<g data-node="d4_0" data-pinned="false" data-shape="rect"><rect x="800" y="614" width="150" height="28" fill="#22222a" stroke="#ffffff" stroke-width="1"/></g>
<g data-node="d5_0" data-pinned="false" data-shape="rect"><rect x="800" y="642" width="150" height="28" fill="#22222a" stroke="#ffffff" stroke-width="1"/></g>
<g data-node="la" data-pinned="false" data-shape="rect"></g>
<g data-node="lt" data-pinned="false" data-shape="rect"></g>
<g data-node="lt2" data-pinned="false" data-shape="rect"></g>
<g data-node="l_n" data-pinned="false" data-shape="rect"></g>
<g data-node="o_n" data-pinned="false" data-shape="rect"></g>
<g data-node="i_n" data-pinned="false" data-shape="rect"></g>
<g data-node="fb" data-pinned="false" data-shape="rect"></g>
<g data-node="flat" data-pinned="false" data-shape="rect"><rect x="220" y="500" width="308" height="6" fill="#22222a" stroke="#ffffff" stroke-width="1"/><line x1="528" y1="501" x2="527" y2="500" stroke="#ffffff" stroke-width="0.7"/><line x1="518" y1="500" x2="524" y2="506" stroke="#ffffff" stroke-width="0.7"/><line x1="509" y1="500" x2="515" y2="506" stroke="#ffffff" stroke-width="0.7"/><line x1="500" y1="500" x2="506" y2="506" stroke="#ffffff" stroke-width="0.7"/><line x1="491" y1="500" x2="497" y2="506" stroke="#ffffff" stroke-width="0.7"/><line x1="482" y1="500" x2="488" y2="506" stroke="#ffffff" stroke-width="0.7"/><line x1="473" y1="500" x2="479" y2="506" stroke="#ffffff" stroke-width="0.7"/><line x1="464" y1="500" x2="470" y2="506" stroke="#ffffff" stroke-width="0.7"/><line x1="455" y1="500" x2="461" y2="506" stroke="#ffffff" stroke-width="0.7"/><line x1="446" y1="500" x2="452" y2="506" stroke="#ffffff" stroke-width="0.7"/><line x1="437" y1="500" x2="443" y2="506" stroke="#ffffff" stroke-width="0.7"/><line x1="428" y1="500" x2="434" y2="506" stroke="#ffffff" stroke-width="0.7"/><line x1="419" y1="500" x2="425" y2="506" stroke="#ffffff" stroke-width="0.7"/><line x1="410" y1="500" x2="416" y2="506" stroke="#ffffff" stroke-width="0.7"/><line x1="401" y1="500" x2="407" y2="506" stroke="#ffffff" stroke-width="0.7"/><line x1="392" y1="500" x2="398" y2="506" stroke="#ffffff" stroke-width="0.7"/><line x1="383" y1="500" x2="389" y2="506" stroke="#ffffff" stroke-width="0.7"/><line x1="374" y1="500" x2="380" y2="506" stroke="#ffffff" stroke-width="0.7"/><line x1="365" y1="500" x2="371" y2="506" stroke="#ffffff" stroke-width="0.7"/><line x1="356" y1="500" x2="362" y2="506" stroke="#ffffff" stroke-width="0.7"/><line x1="347" y1="500" x2="353" y2="506" stroke="#ffffff" stroke-width="0.7"/><line x1="338" y1="500" x2="344" y2="506" stroke="#ffffff" stroke-width="0.7"/><line x1="329" y1="500" x2="335" y2="506" stroke="#ffffff" stroke-width="0.7"/><line x1="320" y1="500" x2="326" y2="506" stroke="#ffffff" stroke-width="0.7"/><line x1="311" y1="500" x2="317" y2="506" stroke="#ffffff" stroke-width="0.7"/><line x1="302" y1="500" x2="308" y2="506" stroke="#ffffff" stroke-width="0.7"/><line x1="293" y1="500" x2="299" y2="506" stroke="#ffffff" stroke-width="0.7"/><line x1="284" y1="500" x2="290" y2="506" stroke="#ffffff" stroke-width="0.7"/><line x1="275" y1="500" x2="281" y2="506" stroke="#ffffff" stroke-width="0.7"/><line x1="266" y1="500" x2="272" y2="506" stroke="#ffffff" stroke-width="0.7"/><line x1="257" y1="500" x2="263" y2="506" stroke="#ffffff" stroke-width="0.7"/><line x1="248" y1="500" x2="254" y2="506" stroke="#ffffff" stroke-width="0.7"/><line x1="239" y1="500" x2="245" y2="506" stroke="#ffffff" stroke-width="0.7"/><line x1="230" y1="500" x2="236" y2="506" stroke="#ffffff" stroke-width="0.7"/><line x1="221" y1="500" x2="227" y2="506" stroke="#ffffff" stroke-width="0.7"/></g>
<g data-node="lb" data-pinned="false" data-shape="rect"></g>
<g data-node="p0" data-pinned="false" data-shape="rect"></g>
<g data-node="p1" data-pinned="false" data-shape="rect"></g>
<g data-node="p2" data-pinned="false" data-shape="rect"></g>
<g data-node="p3" data-pinned="false" data-shape="rect"></g>
<g data-node="p4" data-pinned="false" data-shape="rect"></g>
<g data-node="p5" data-pinned="false" data-shape="rect"></g>
<g data-node="p6" data-pinned="false" data-shape="rect"></g>
<g data-node="p7" data-pinned="false" data-shape="rect"></g>
<g data-node="p8" data-pinned="false" data-shape="rect"></g>
<g data-node="p9" data-pinned="false" data-shape="rect"></g>
<g data-node="p10" data-pinned="false" data-shape="rect"></g>
<g data-node="p11" data-pinned="false" data-shape="rect"></g>
<g data-node="p12" data-pinned="false" data-shape="rect"></g>
<g data-node="p13" data-pinned="false" data-shape="rect"></g>
<g data-node="p14" data-pinned="false" data-shape="rect"></g>
<g data-node="p15" data-pinned="false" data-shape="rect"></g>
<g data-node="p16" data-pinned="false" data-shape="rect"></g>
<g data-node="p17" data-pinned="false" data-shape="rect"></g>
<g data-node="p18" data-pinned="false" data-shape="rect"></g>
<g data-edge="p0&gt;p0" data-pinned="false"><clipPath id="face-p0_p0"><path d="M 220 300 L 420 300 L 420 306.4 L 226.4 306.4 L 226.4 420 L 220 420 L 220 300 Z"/></clipPath><g clip-path="url(#face-p0_p0)"><line x1="420" y1="303" x2="417" y2="300" stroke="#a0a0ab" stroke-width="0.7"/><line x1="420" y1="312" x2="408" y2="300" stroke="#a0a0ab" stroke-width="0.7"/><line x1="420" y1="321" x2="399" y2="300" stroke="#a0a0ab" stroke-width="0.7"/><line x1="420" y1="330" x2="390" y2="300" stroke="#a0a0ab" stroke-width="0.7"/><line x1="420" y1="339" x2="381" y2="300" stroke="#a0a0ab" stroke-width="0.7"/><line x1="420" y1="348" x2="372" y2="300" stroke="#a0a0ab" stroke-width="0.7"/><line x1="420" y1="357" x2="363" y2="300" stroke="#a0a0ab" stroke-width="0.7"/><line x1="420" y1="366" x2="354" y2="300" stroke="#a0a0ab" stroke-width="0.7"/><line x1="420" y1="375" x2="345" y2="300" stroke="#a0a0ab" stroke-width="0.7"/><line x1="420" y1="384" x2="336" y2="300" stroke="#a0a0ab" stroke-width="0.7"/><line x1="420" y1="393" x2="327" y2="300" stroke="#a0a0ab" stroke-width="0.7"/><line x1="420" y1="402" x2="318" y2="300" stroke="#a0a0ab" stroke-width="0.7"/><line x1="420" y1="411" x2="309" y2="300" stroke="#a0a0ab" stroke-width="0.7"/><line x1="420" y1="420" x2="300" y2="300" stroke="#a0a0ab" stroke-width="0.7"/><line x1="291" y1="300" x2="411" y2="420" stroke="#a0a0ab" stroke-width="0.7"/><line x1="282" y1="300" x2="402" y2="420" stroke="#a0a0ab" stroke-width="0.7"/><line x1="273" y1="300" x2="393" y2="420" stroke="#a0a0ab" stroke-width="0.7"/><line x1="264" y1="300" x2="384" y2="420" stroke="#a0a0ab" stroke-width="0.7"/><line x1="255" y1="300" x2="375" y2="420" stroke="#a0a0ab" stroke-width="0.7"/><line x1="246" y1="300" x2="366" y2="420" stroke="#a0a0ab" stroke-width="0.7"/><line x1="237" y1="300" x2="357" y2="420" stroke="#a0a0ab" stroke-width="0.7"/><line x1="228" y1="300" x2="348" y2="420" stroke="#a0a0ab" stroke-width="0.7"/><line x1="220" y1="301" x2="339" y2="420" stroke="#a0a0ab" stroke-width="0.7"/><line x1="220" y1="310" x2="330" y2="420" stroke="#a0a0ab" stroke-width="0.7"/><line x1="220" y1="319" x2="321" y2="420" stroke="#a0a0ab" stroke-width="0.7"/><line x1="220" y1="328" x2="312" y2="420" stroke="#a0a0ab" stroke-width="0.7"/><line x1="220" y1="337" x2="303" y2="420" stroke="#a0a0ab" stroke-width="0.7"/><line x1="220" y1="346" x2="294" y2="420" stroke="#a0a0ab" stroke-width="0.7"/><line x1="220" y1="355" x2="285" y2="420" stroke="#a0a0ab" stroke-width="0.7"/><line x1="220" y1="364" x2="276" y2="420" stroke="#a0a0ab" stroke-width="0.7"/><line x1="220" y1="373" x2="267" y2="420" stroke="#a0a0ab" stroke-width="0.7"/><line x1="220" y1="382" x2="258" y2="420" stroke="#a0a0ab" stroke-width="0.7"/><line x1="220" y1="391" x2="249" y2="420" stroke="#a0a0ab" stroke-width="0.7"/><line x1="220" y1="400" x2="240" y2="420" stroke="#a0a0ab" stroke-width="0.7"/><line x1="220" y1="409" x2="231" y2="420" stroke="#a0a0ab" stroke-width="0.7"/><line x1="220" y1="418" x2="222" y2="420" stroke="#a0a0ab" stroke-width="0.7"/></g><path d="M 220 300 L 420 300 L 420 306.4 L 226.4 306.4 L 226.4 420 L 220 420 L 220 300 Z" fill="none" stroke="#a0a0ab" stroke-width="2"/></g>
<g data-edge="p1&gt;p2" data-pinned="false"><path d="M 221 280 L 419 280" fill="none" stroke="#a0a0ab" stroke-width="2"/><path d="M 419 280 L 409 276 L 409 284 Z" fill="#a0a0ab" stroke="none"/><path d="M 221 280 L 231 284 L 231 276 Z" fill="#a0a0ab" stroke="none"/></g>
<g data-edge="p3&gt;p4" data-pinned="false"><path d="M 200 301 L 200 419" fill="none" stroke="#a0a0ab" stroke-width="2"/><path d="M 200 419 L 204 409 L 196 409 Z" fill="#a0a0ab" stroke="none"/><path d="M 200 301 L 196 311 L 204 311 Z" fill="#a0a0ab" stroke="none"/></g>
<g data-edge="p5&gt;p6" data-pinned="false"><path d="M 221 480 L 527.4 480" fill="none" stroke="#a0a0ab" stroke-width="2"/><path d="M 527 480 L 517 476 L 517 484 Z" fill="#a0a0ab" stroke="none"/><path d="M 221 480 L 231 484 L 231 476 Z" fill="#a0a0ab" stroke="none"/></g>
<g data-edge="p7&gt;p8" data-pinned="false"><path d="M 420 488 L 420 518.4" fill="none" stroke="#a0a0ab" stroke-width="2" stroke-dasharray="14 3 3 3"/></g>
<g data-edge="p9&gt;p10" data-pinned="false"><path d="M 810 319 L 810.3 312.9 L 811.1 305.9 L 812.5 299 L 814.4 292.2 L 816.9 285.6 L 819.8 279.1 L 823.3 273 L 827.2 267.1 L 831.6 261.5 L 836.4 256.4 L 841.5 251.6 L 847.1 247.2 L 853 243.3 L 859.1 239.8 L 865.6 236.9 L 872.2 234.4 L 879 232.5 L 885.9 231.1 L 892.9 230.3 L 899 230" fill="none" stroke="#a0a0ab" stroke-width="2"/></g>
<g data-edge="p11&gt;p12" data-pinned="false"><path d="M 836 319 L 836.2 315 L 836.8 310 L 837.8 305.1 L 839.1 300.2 L 840.9 295.5 L 843 290.9 L 845.4 286.6 L 848.2 282.4 L 851.3 278.4 L 854.7 274.7 L 858.4 271.3 L 862.4 268.2 L 866.6 265.4 L 870.9 263 L 875.5 260.9 L 880.2 259.1 L 885.1 257.8 L 890 256.8 L 895 256.2 L 899 256" fill="none" stroke="#a0a0ab" stroke-width="2"/></g>
<g data-edge="p13&gt;p14" data-pinned="false"><path d="M 823 319 L 823.2 314 L 823.9 308 L 825.1 302 L 826.8 296.2 L 828.9 290.5 L 831.4 285 L 834.3 279.8 L 837.7 274.7 L 841.4 270 L 845.6 265.6 L 850 261.4 L 854.7 257.7 L 859.8 254.3 L 865 251.4 L 870.5 248.9 L 876.2 246.8 L 882 245.1 L 888 243.9 L 894 243.2 L 899 243" fill="none" stroke="#a0a0ab" stroke-width="2" stroke-dasharray="14 3 3 3"/></g>
<g data-edge="p15&gt;p16" data-pinned="false"><path d="M 811 320 L 835 320" fill="none" stroke="#a0a0ab" stroke-width="2"/></g>
<g data-edge="p17&gt;p18" data-pinned="false"><path d="M 900 231 L 900 255" fill="none" stroke="#a0a0ab" stroke-width="2"/></g>




























































<g data-name="r1"><text x="150" y="763" text-anchor="start" font-family="sans-serif" font-size="12" fill="#f4f4f6">展開長は、外側寸法を足しただけでは合いません（①）。曲げると外側が伸びるので、その分を引きます。</text></g>
<g data-name="r2"><text x="150" y="787" text-anchor="start" font-family="sans-serif" font-size="12" fill="#f4f4f6">50 ＋ 30 − 2.9 ＝ 77.1。 引く数を「伸び値」と呼び、曲げの箇所の数だけ引きます。</text></g>
<g data-name="r3"><text x="150" y="811" text-anchor="start" font-family="sans-serif" font-size="12" fill="#f4f4f6">外は伸び、内は縮み、あいだに伸びも縮みもしない面があります（②）。その面の長さが展開長です。</text></g>
<g data-name="r4"><text x="150" y="835" text-anchor="start" font-family="sans-serif" font-size="12" fill="#f4f4f6">中立面は板厚の真ん中ではありません。 内側へ寄ります —— 寄り方は材質・板厚・内R・金型で変わります。</text></g>
<g data-name="r5"><text x="150" y="859" text-anchor="start" font-family="sans-serif" font-size="12" fill="#f4f4f6">だから伸び値は規格ではありません（③）。各工場が実測データとして持っていて、同じ図面でも工場が違えば数が違います。</text></g>
<g data-name="r6"><text x="150" y="883" text-anchor="start" font-family="sans-serif" font-size="12" fill="#f4f4f6">図面には「どの伸び値で展開したか」を書きます。 書いていないと、受け取った工場が自分の値で展開し直すことになります。</text></g>
<g data-name="r7"><text x="150" y="907" text-anchor="start" font-family="sans-serif" font-size="12" fill="#f4f4f6">曲げ順も書きます。 順が違うと、先に曲げた部分に金型が当たって、最後の一折りが曲げられません。</text></g>
<g data-name="calc"><text x="430" y="594" text-anchor="middle" font-family="sans-serif" font-size="12" fill="#f4f4f6">展開長 ＝ 50 ＋ 30 − 2.9 ＝ 77.1</text></g>
<g data-name="t1"><text x="150" y="214" text-anchor="start" font-family="sans-serif" font-size="12" fill="#f4f4f6">① 外側寸法を足しただけでは合わない（1px ＝ 0.25mm）</text></g>
<g data-name="t2"><text x="800" y="214" text-anchor="start" font-family="sans-serif" font-size="12" fill="#f4f4f6">② 外は伸び、内は縮む</text></g>
<g data-name="t3"><text x="800" y="484" text-anchor="start" font-family="sans-serif" font-size="12" fill="#f4f4f6">③ 図面に書くこと</text></g>
<g data-name="c_n"><text x="220" y="631" text-anchor="start" font-family="sans-serif" font-size="12" fill="#f4f4f6">外側寸法の合計から、伸び値を曲げの数だけ引く。</text></g>
<g data-name="d0_1"><text x="1095" y="520" text-anchor="middle" font-family="sans-serif" font-size="12" fill="#0f0f13">なぜ</text></g>
<g data-name="d1_1"><text x="1095" y="548" text-anchor="middle" font-family="sans-serif" font-size="12" fill="#f4f4f6">伸び値が変わる</text></g>
<g data-name="d2_1"><text x="1095" y="576" text-anchor="middle" font-family="sans-serif" font-size="12" fill="#f4f4f6">同上</text></g>
<g data-name="d3_1"><text x="1095" y="604" text-anchor="middle" font-family="sans-serif" font-size="12" fill="#f4f4f6">同上</text></g>
<g data-name="d4_1"><text x="1095" y="632" text-anchor="middle" font-family="sans-serif" font-size="12" fill="#f4f4f6">どの値で展開したか</text></g>
<g data-name="d5_1"><text x="1095" y="660" text-anchor="middle" font-family="sans-serif" font-size="12" fill="#f4f4f6">順が違うと、金型が当たる</text></g>
<g data-name="m_n"><text x="800" y="363" text-anchor="start" font-family="sans-serif" font-size="12" fill="#f4f4f6">中立面（一点鎖線）—— 伸びも縮みもしない</text></g>
<g data-name="m_n2"><text x="800" y="385" text-anchor="start" font-family="sans-serif" font-size="12" fill="#f4f4f6">この面の長さが、展開長になる。</text></g>
<g data-name="m_n3"><text x="800" y="407" text-anchor="start" font-family="sans-serif" font-size="12" fill="#f4f4f6">中立面の位置は板厚の真ん中ではない —— 内側へ寄る。</text></g>
<g data-name="m_n4"><text x="800" y="429" text-anchor="start" font-family="sans-serif" font-size="12" fill="#f4f4f6">寄り方（K 値）は材質・板厚・内R・金型で変わる。</text></g>
<g data-name="d_n"><text x="800" y="693" text-anchor="start" font-family="sans-serif" font-size="12" fill="#f4f4f6">伸び値は規格ではない。 工場ごとの実測値。</text></g>
<g data-name="d_n2"><text x="800" y="715" text-anchor="start" font-family="sans-serif" font-size="12" fill="#f4f4f6">この図の 2.9 も、ある条件での例。</text></g>
<g data-name="fl"><text x="374" y="471" text-anchor="middle" font-family="sans-serif" font-size="12" fill="#f4f4f6">展開長 77.1</text></g>
<g data-name="f_n"><text x="374" y="555" text-anchor="middle" font-family="sans-serif" font-size="12" fill="#f4f4f6">曲げる前（展開図）</text></g>
<g data-name="d0_0"><text x="875" y="520" text-anchor="middle" font-family="sans-serif" font-size="12" fill="#0f0f13">何を</text></g>
<g data-name="d1_0"><text x="875" y="548" text-anchor="middle" font-family="sans-serif" font-size="12" fill="#f4f4f6">板厚と材質</text></g>
<g data-name="d2_0"><text x="875" y="576" text-anchor="middle" font-family="sans-serif" font-size="12" fill="#f4f4f6">内R</text></g>
<g data-name="d3_0"><text x="875" y="604" text-anchor="middle" font-family="sans-serif" font-size="12" fill="#f4f4f6">曲げ角度</text></g>
<g data-name="d4_0"><text x="875" y="632" text-anchor="middle" font-family="sans-serif" font-size="12" fill="#f4f4f6">伸び値</text></g>
<g data-name="d5_0"><text x="875" y="660" text-anchor="middle" font-family="sans-serif" font-size="12" fill="#f4f4f6">曲げ順</text></g>
<g data-name="la"><text x="320" y="271" text-anchor="middle" font-family="sans-serif" font-size="12" fill="#f4f4f6">外側 50</text></g>
<g data-name="lt"><text x="436" y="315" text-anchor="start" font-family="sans-serif" font-size="12" fill="#f4f4f6">板厚 1.6　内R 1.6</text></g>
<g data-name="lt2"><text x="436" y="335" text-anchor="start" font-family="sans-serif" font-size="12" fill="#f4f4f6">（角の形は ② を見る）</text></g>
<g data-name="l_n"><text x="320" y="447" text-anchor="middle" font-family="sans-serif" font-size="12" fill="#f4f4f6">曲げたあと</text></g>
<g data-name="o_n"><text x="910" y="239" text-anchor="start" font-family="sans-serif" font-size="12" fill="#f4f4f6">外側 —— 伸びる</text></g>
<g data-name="i_n"><text x="860" y="293" text-anchor="start" font-family="sans-serif" font-size="12" fill="#f4f4f6">内側 —— 縮む</text></g>
<g data-name="fb"><text x="420" y="531" text-anchor="middle" font-family="sans-serif" font-size="12" fill="#f4f4f6">曲げ線</text></g>
<g data-name="lb"><text x="190" y="364" text-anchor="end" font-family="sans-serif" font-size="12" fill="#f4f4f6">外側 30</text></g>
<g data-name="scalebar"><rect x="90" y="948" width="50" height="7" fill="#ffffff" stroke="#ffffff" stroke-width="0.8"/><rect x="140" y="948" width="50" height="7" fill="#0f0f13" stroke="#ffffff" stroke-width="0.8"/><rect x="190" y="948" width="50" height="7" fill="#ffffff" stroke="#ffffff" stroke-width="0.8"/><rect x="240" y="948" width="50" height="7" fill="#0f0f13" stroke="#ffffff" stroke-width="0.8"/><text x="90" y="964" text-anchor="start" font-family="sans-serif" font-size="10" fill="#a0a0ab">0</text><text x="190" y="964" text-anchor="middle" font-family="sans-serif" font-size="10" fill="#a0a0ab">25</text><text x="290" y="964" text-anchor="end" font-family="sans-serif" font-size="10" fill="#a0a0ab">50</text><text x="298" y="955" font-family="sans-serif" font-size="10" fill="#a0a0ab">mm</text></g>
</svg>