<svg xmlns="http://www.w3.org/2000/svg" width="1146" height="766" viewBox="0 0 1146 766">
<defs><marker id="arrow" viewBox="0 0 10 10" refX="9" refY="5" markerWidth="6" markerHeight="6" orient="auto"><path d="M 0 0 L 10 5 L 0 10 z" fill="#a0a0ab"/></marker></defs>
<g data-group="f3"><rect x="128" y="60" width="948" height="590" fill="#141418" stroke="#ffffff" stroke-width="10"/><text x="140" y="82" font-family="sans-serif" font-size="13" fill="#a0a0ab">3 階　床面積 480 m²　CH＝3,000　片廊下型</text></g>
<g data-node="rouka" data-pinned="false" data-shape="rect"><rect x="132" y="366" width="940" height="100" fill="#22222a" stroke="#ffffff" stroke-width="6"/><text x="602" y="412" text-anchor="middle" font-family="sans-serif" font-size="12" fill="#f4f4f6">廊下</text><text x="602" y="427" text-anchor="middle" font-family="sans-serif" font-size="10" fill="#a0a0ab">有効 2,500</text></g>
<g data-node="c31" data-pinned="false" data-shape="rect"><rect x="132" y="86" width="320" height="280" fill="#22222a" stroke="#ffffff" stroke-width="6"/><line x1="161" y1="366" x2="231" y2="366" stroke="#22222a" stroke-width="8"/><line x1="161" y1="366" x2="200" y2="366" stroke="#ffffff" stroke-width="2"/><line x1="193" y1="361" x2="231" y2="361" stroke="#ffffff" stroke-width="2"/><line x1="353" y1="366" x2="423" y2="366" stroke="#22222a" stroke-width="8"/><line x1="353" y1="366" x2="392" y2="366" stroke="#ffffff" stroke-width="2"/><line x1="385" y1="361" x2="423" y2="361" stroke="#ffffff" stroke-width="2"/><line x1="173" y1="86" x2="283" y2="86" stroke="#22222a" stroke-width="8"/><line x1="173" y1="84" x2="283" y2="84" stroke="#ffffff" stroke-width="1"/><line x1="173" y1="88" x2="283" y2="88" stroke="#ffffff" stroke-width="1"/><line x1="301" y1="86" x2="411" y2="86" stroke="#22222a" stroke-width="8"/><line x1="301" y1="84" x2="411" y2="84" stroke="#ffffff" stroke-width="1"/><line x1="301" y1="88" x2="411" y2="88" stroke="#ffffff" stroke-width="1"/><text x="140" y="103" font-family="sans-serif" font-size="10" fill="#a0a0ab">3-1</text><text x="292" y="222" text-anchor="middle" font-family="sans-serif" font-size="12" fill="#f4f4f6">3 年 1 組</text><text x="292" y="237" text-anchor="middle" font-family="sans-serif" font-size="10" fill="#a0a0ab">64 m²・35 人</text></g>
<g data-node="c32" data-pinned="false" data-shape="rect"><rect x="452" y="86" width="320" height="280" fill="#22222a" stroke="#ffffff" stroke-width="6"/><line x1="481" y1="366" x2="551" y2="366" stroke="#22222a" stroke-width="8"/><line x1="481" y1="366" x2="520" y2="366" stroke="#ffffff" stroke-width="2"/><line x1="513" y1="361" x2="551" y2="361" stroke="#ffffff" stroke-width="2"/><line x1="673" y1="366" x2="743" y2="366" stroke="#22222a" stroke-width="8"/><line x1="673" y1="366" x2="712" y2="366" stroke="#ffffff" stroke-width="2"/><line x1="705" y1="361" x2="743" y2="361" stroke="#ffffff" stroke-width="2"/><line x1="493" y1="86" x2="603" y2="86" stroke="#22222a" stroke-width="8"/><line x1="493" y1="84" x2="603" y2="84" stroke="#ffffff" stroke-width="1"/><line x1="493" y1="88" x2="603" y2="88" stroke="#ffffff" stroke-width="1"/><line x1="621" y1="86" x2="731" y2="86" stroke="#22222a" stroke-width="8"/><line x1="621" y1="84" x2="731" y2="84" stroke="#ffffff" stroke-width="1"/><line x1="621" y1="88" x2="731" y2="88" stroke="#ffffff" stroke-width="1"/><text x="460" y="103" font-family="sans-serif" font-size="10" fill="#a0a0ab">3-2</text><text x="612" y="222" text-anchor="middle" font-family="sans-serif" font-size="12" fill="#f4f4f6">3 年 2 組</text><text x="612" y="237" text-anchor="middle" font-family="sans-serif" font-size="10" fill="#a0a0ab">64 m²・34 人</text></g>
<g data-node="rika" data-pinned="false" data-shape="rect"><rect x="772" y="86" width="300" height="180" fill="#22222a" stroke="#ffffff" stroke-width="6"/><line x1="887" y1="266" x2="957" y2="266" stroke="#22222a" stroke-width="8"/><line x1="887" y1="266" x2="887" y2="196" stroke="#ffffff" stroke-width="2"/><path d="M 887 196 A 70 70 0 0 0 957 266" fill="none" stroke="#ffffff" stroke-width="1"/><line x1="862" y1="86" x2="982" y2="86" stroke="#22222a" stroke-width="8"/><line x1="862" y1="84" x2="982" y2="84" stroke="#ffffff" stroke-width="1"/><line x1="862" y1="88" x2="982" y2="88" stroke="#ffffff" stroke-width="1"/><text x="780" y="103" font-family="sans-serif" font-size="10" fill="#a0a0ab">3-3</text><text x="922" y="172" text-anchor="middle" font-family="sans-serif" font-size="12" fill="#f4f4f6">理科室</text><text x="922" y="187" text-anchor="middle" font-family="sans-serif" font-size="10" fill="#a0a0ab">80 m²・準備室つき</text></g>
<g data-node="kaidan_w" data-pinned="false" data-shape="rect"><rect x="132" y="466" width="200" height="180" fill="#22222a" stroke="#ffffff" stroke-width="6"/><line x1="182" y1="466" x2="282" y2="466" stroke="#22222a" stroke-width="8"/><text x="140" y="483" font-family="sans-serif" font-size="10" fill="#a0a0ab">EX-1</text><text x="232" y="552" text-anchor="middle" font-family="sans-serif" font-size="12" fill="#f4f4f6">階段</text><text x="232" y="567" text-anchor="middle" font-family="sans-serif" font-size="10" fill="#a0a0ab">蹴上 160・踏面 280</text></g>
<g data-node="kaidan_e" data-pinned="false" data-shape="rect"><rect x="872" y="466" width="200" height="180" fill="#22222a" stroke="#ffffff" stroke-width="6"/><line x1="922" y1="466" x2="1022" y2="466" stroke="#22222a" stroke-width="8"/><text x="880" y="483" font-family="sans-serif" font-size="10" fill="#a0a0ab">EX-2</text><text x="972" y="552" text-anchor="middle" font-family="sans-serif" font-size="12" fill="#f4f4f6">階段</text><text x="972" y="567" text-anchor="middle" font-family="sans-serif" font-size="10" fill="#a0a0ab">蹴上 160・踏面 280</text></g>
<g data-node="wc_b" data-pinned="false" data-shape="rect"><rect x="332" y="466" width="180" height="180" fill="#22222a" stroke="#ffffff" stroke-width="6"/><line x1="387" y1="466" x2="457" y2="466" stroke="#22222a" stroke-width="8"/><text x="422" y="561" text-anchor="middle" font-family="sans-serif" font-size="12" fill="#f4f4f6">男子便所</text></g>
<g data-node="wc_g" data-pinned="false" data-shape="rect"><rect x="512" y="466" width="180" height="180" fill="#22222a" stroke="#ffffff" stroke-width="6"/><line x1="567" y1="466" x2="637" y2="466" stroke="#22222a" stroke-width="8"/><text x="602" y="561" text-anchor="middle" font-family="sans-serif" font-size="12" fill="#f4f4f6">女子便所</text></g>
<g data-node="tebiki" data-pinned="false" data-shape="rect"><rect x="692" y="466" width="180" height="180" fill="#22222a" stroke="#ffffff" stroke-width="6"/><line x1="737" y1="466" x2="827" y2="466" stroke="#22222a" stroke-width="8"/><text x="782" y="561" text-anchor="middle" font-family="sans-serif" font-size="12" fill="#f4f4f6">手洗い</text></g>
<g data-node="junbi" data-pinned="false" data-shape="rect"><rect x="772" y="266" width="300" height="100" fill="#22222a" stroke="#ffffff" stroke-width="6"/><line x1="892" y1="366" x2="952" y2="366" stroke="#22222a" stroke-width="8"/><line x1="892" y1="366" x2="892" y2="306" stroke="#ffffff" stroke-width="2"/><path d="M 892 306 A 60 60 0 0 0 952 366" fill="none" stroke="#ffffff" stroke-width="1"/><text x="780" y="283" font-family="sans-serif" font-size="10" fill="#a0a0ab">3-4</text><text x="922" y="312" text-anchor="middle" font-family="sans-serif" font-size="12" fill="#f4f4f6">準備室</text><text x="922" y="327" text-anchor="middle" font-family="sans-serif" font-size="10" fill="#a0a0ab">30 m²</text></g>
<g data-grid="true"><line x1="132" y1="30" x2="132" y2="728" stroke="#ffffff" stroke-width="1" stroke-dasharray="14 3 3 3"/><circle cx="132" cy="16" r="12" fill="#0f0f13" stroke="#ffffff"/><text x="132" y="20" text-anchor="middle" font-family="sans-serif" font-size="11" fill="#a0a0ab">X1</text><circle cx="132" cy="742" r="12" fill="#0f0f13" stroke="#ffffff"/><text x="132" y="746" text-anchor="middle" font-family="sans-serif" font-size="11" fill="#a0a0ab">X1</text><line x1="452" y1="30" x2="452" y2="728" stroke="#ffffff" stroke-width="1" stroke-dasharray="14 3 3 3"/><circle cx="452" cy="16" r="12" fill="#0f0f13" stroke="#ffffff"/><text x="452" y="20" text-anchor="middle" font-family="sans-serif" font-size="11" fill="#a0a0ab">X2</text><circle cx="452" cy="742" r="12" fill="#0f0f13" stroke="#ffffff"/><text x="452" y="746" text-anchor="middle" font-family="sans-serif" font-size="11" fill="#a0a0ab">X2</text><line x1="772" y1="30" x2="772" y2="728" stroke="#ffffff" stroke-width="1" stroke-dasharray="14 3 3 3"/><circle cx="772" cy="16" r="12" fill="#0f0f13" stroke="#ffffff"/><text x="772" y="20" text-anchor="middle" font-family="sans-serif" font-size="11" fill="#a0a0ab">X3</text><circle cx="772" cy="742" r="12" fill="#0f0f13" stroke="#ffffff"/><text x="772" y="746" text-anchor="middle" font-family="sans-serif" font-size="11" fill="#a0a0ab">X3</text><line x1="932" y1="30" x2="932" y2="728" stroke="#ffffff" stroke-width="1" stroke-dasharray="14 3 3 3"/><circle cx="932" cy="16" r="12" fill="#0f0f13" stroke="#ffffff"/><text x="932" y="20" text-anchor="middle" font-family="sans-serif" font-size="11" fill="#a0a0ab">X4</text><circle cx="932" cy="742" r="12" fill="#0f0f13" stroke="#ffffff"/><text x="932" y="746" text-anchor="middle" font-family="sans-serif" font-size="11" fill="#a0a0ab">X4</text><line x1="50" y1="86" x2="1106" y2="86" stroke="#ffffff" stroke-width="1" stroke-dasharray="14 3 3 3"/><circle cx="36" cy="86" r="12" fill="#0f0f13" stroke="#ffffff"/><text x="36" y="90" text-anchor="middle" font-family="sans-serif" font-size="11" fill="#a0a0ab">Y1</text><circle cx="1120" cy="86" r="12" fill="#0f0f13" stroke="#ffffff"/><text x="1120" y="90" text-anchor="middle" font-family="sans-serif" font-size="11" fill="#a0a0ab">Y1</text><line x1="50" y1="366" x2="1106" y2="366" stroke="#ffffff" stroke-width="1" stroke-dasharray="14 3 3 3"/><circle cx="36" cy="366" r="12" fill="#0f0f13" stroke="#ffffff"/><text x="36" y="370" text-anchor="middle" font-family="sans-serif" font-size="11" fill="#a0a0ab">Y2</text><circle cx="1120" cy="366" r="12" fill="#0f0f13" stroke="#ffffff"/><text x="1120" y="370" text-anchor="middle" font-family="sans-serif" font-size="11" fill="#a0a0ab">Y2</text><line x1="50" y1="466" x2="1106" y2="466" stroke="#ffffff" stroke-width="1" stroke-dasharray="14 3 3 3"/><circle cx="36" cy="466" r="12" fill="#0f0f13" stroke="#ffffff"/><text x="36" y="470" text-anchor="middle" font-family="sans-serif" font-size="11" fill="#a0a0ab">Y3</text><circle cx="1120" cy="466" r="12" fill="#0f0f13" stroke="#ffffff"/><text x="1120" y="470" text-anchor="middle" font-family="sans-serif" font-size="11" fill="#a0a0ab">Y3</text></g>
<g data-dimensions="true"><line x1="132" y1="676" x2="452" y2="676" stroke="#ffffff" stroke-width="1"/><line x1="128" y1="680" x2="136" y2="672" stroke="#ffffff" stroke-width="1"/><line x1="448" y1="680" x2="456" y2="672" stroke="#ffffff" stroke-width="1"/><rect x="277" y="661" width="30" height="13" fill="#0f0f13"/><text x="292" y="671" text-anchor="middle" font-family="sans-serif" font-size="10" fill="#a0a0ab">8000</text><line x1="452" y1="676" x2="772" y2="676" stroke="#ffffff" stroke-width="1"/><line x1="448" y1="680" x2="456" y2="672" stroke="#ffffff" stroke-width="1"/><line x1="768" y1="680" x2="776" y2="672" stroke="#ffffff" stroke-width="1"/><rect x="597" y="661" width="30" height="13" fill="#0f0f13"/><text x="612" y="671" text-anchor="middle" font-family="sans-serif" font-size="10" fill="#a0a0ab">8000</text><line x1="772" y1="676" x2="932" y2="676" stroke="#ffffff" stroke-width="1"/><line x1="768" y1="680" x2="776" y2="672" stroke="#ffffff" stroke-width="1"/><line x1="928" y1="680" x2="936" y2="672" stroke="#ffffff" stroke-width="1"/><rect x="837" y="661" width="30" height="13" fill="#0f0f13"/><text x="852" y="671" text-anchor="middle" font-family="sans-serif" font-size="10" fill="#a0a0ab">4000</text><line x1="132" y1="700" x2="932" y2="700" stroke="#ffffff" stroke-width="1"/><line x1="128" y1="704" x2="136" y2="696" stroke="#ffffff" stroke-width="1"/><line x1="928" y1="704" x2="936" y2="696" stroke="#ffffff" stroke-width="1"/><rect x="514" y="685" width="36" height="13" fill="#0f0f13"/><text x="532" y="695" text-anchor="middle" font-family="sans-serif" font-size="10" fill="#a0a0ab">20000</text><line x1="102" y1="86" x2="102" y2="366" stroke="#ffffff" stroke-width="1"/><line x1="98" y1="82" x2="106" y2="90" stroke="#ffffff" stroke-width="1"/><line x1="98" y1="362" x2="106" y2="370" stroke="#ffffff" stroke-width="1"/><rect x="86" y="211" width="13" height="30" fill="#0f0f13"/><text x="97" y="226" text-anchor="middle" font-family="sans-serif" font-size="10" fill="#a0a0ab" transform="rotate(-90 97 226)">7000</text><line x1="102" y1="366" x2="102" y2="466" stroke="#ffffff" stroke-width="1"/><line x1="98" y1="362" x2="106" y2="370" stroke="#ffffff" stroke-width="1"/><line x1="98" y1="462" x2="106" y2="470" stroke="#ffffff" stroke-width="1"/><rect x="86" y="401" width="13" height="30" fill="#0f0f13"/><text x="97" y="416" text-anchor="middle" font-family="sans-serif" font-size="10" fill="#a0a0ab" transform="rotate(-90 97 416)">2500</text><line x1="78" y1="86" x2="78" y2="466" stroke="#ffffff" stroke-width="1"/><line x1="74" y1="82" x2="82" y2="90" stroke="#ffffff" stroke-width="1"/><line x1="74" y1="462" x2="82" y2="470" stroke="#ffffff" stroke-width="1"/><rect x="62" y="261" width="13" height="30" fill="#0f0f13"/><text x="73" y="276" text-anchor="middle" font-family="sans-serif" font-size="10" fill="#a0a0ab" transform="rotate(-90 73 276)">9500</text><g transform="rotate(0 1093 37)"><path d="M 1093 24 L 1098 46 L 1093 41 L 1088 46 Z" fill="#ffffff"/></g><text x="1093" y="59" text-anchor="middle" font-family="sans-serif" font-size="10" fill="#a0a0ab">N</text></g>
</svg>