<svg xmlns="http://www.w3.org/2000/svg" width="1264" height="1218" viewBox="0 0 1264 1218">
<title>ドラム式洗濯機の構造（1G 未満と 335G を切り替える）</title>
<defs><marker id="arrow" viewBox="0 0 10 10" refX="9" refY="5" markerWidth="6" markerHeight="6" orient="auto"><path d="M 0 0 L 10 5 L 0 10 z" fill="#a0a0ab"/></marker></defs>
<rect data-paper="1" x="0" y="0" width="1264" height="1218" fill="#0f0f13"/>
<g data-node="body" data-pinned="false" data-shape="rect"><rect x="200" y="200" width="500" height="470" fill="#22222a" stroke="#ffffff" stroke-width="1"/></g>
<g data-node="tub" data-pinned="false" data-shape="rect"><circle cx="450" cy="410" r="150" fill="#22222a" stroke="#ffffff" stroke-width="1"/></g>
<g data-node="drum" data-pinned="false" data-shape="rect"><circle cx="450" cy="410" r="124" fill="#22222a" stroke="#ffffff" stroke-width="1"/></g>
<g data-node="why2" data-pinned="false" data-shape="rect"><rect x="780" y="344" width="460" height="80" fill="#22222a" stroke="#ffffff" stroke-width="1"/></g>
<g data-node="why3" data-pinned="false" data-shape="rect"><rect x="780" y="580" width="460" height="80" fill="#22222a" stroke="#ffffff" stroke-width="1"/></g>
<g data-node="h_why" data-pinned="false" data-shape="rect"><rect x="150" y="958" width="600" height="54" fill="#22222a" stroke="#ffffff" stroke-width="1"/></g>
<g data-node="why4" data-pinned="false" data-shape="rect"><rect x="780" y="840" width="460" height="56" fill="#22222a" stroke="#ffffff" stroke-width="1"/></g>
<g data-node="r1" data-pinned="false" data-shape="rect"></g>
<g data-node="r2" data-pinned="false" data-shape="rect"></g>
<g data-node="r3" data-pinned="false" data-shape="rect"></g>
<g data-node="r4" data-pinned="false" data-shape="rect"></g>
<g data-node="r5" data-pinned="false" data-shape="rect"></g>
<g data-node="r6" data-pinned="false" data-shape="rect"></g>
<g data-node="r7" data-pinned="false" data-shape="rect"></g>
<g data-node="h_dr" data-pinned="false" data-shape="rect"><rect x="220" y="912" width="440" height="30" fill="#22222a" stroke="#ffffff" stroke-width="1"/></g>
<g data-node="t1" data-pinned="false" data-shape="rect"></g>
<g data-node="t5" data-pinned="false" data-shape="rect"></g>
<g data-node="h186" data-pinned="false" data-shape="rect"><rect x="780" y="186" width="460" height="24" fill="#22222a" stroke="#ffffff" stroke-width="1"/><rect x="780" y="186" width="460" height="24" fill="#ffffff" fill-opacity="0.82"/></g>
<g data-node="h470" data-pinned="false" data-shape="rect"><rect x="780" y="470" width="460" height="24" fill="#22222a" stroke="#ffffff" stroke-width="1"/><rect x="780" y="470" width="460" height="24" fill="#ffffff" fill-opacity="0.82"/></g>
<g data-node="h706" data-pinned="false" data-shape="rect"><rect x="780" y="706" width="460" height="24" fill="#22222a" stroke="#ffffff" stroke-width="1"/><rect x="780" y="706" width="460" height="24" fill="#ffffff" fill-opacity="0.82"/></g>
<g data-node="h_cool" data-pinned="false" data-shape="rect"><rect x="470" y="752" width="190" height="56" fill="#22222a" stroke="#ffffff" stroke-width="1"/><circle cx="475" cy="757" r="0.9" fill="#ffffff"/><circle cx="484" cy="757" r="0.9" fill="#ffffff"/><circle cx="493" cy="757" r="0.9" fill="#ffffff"/><circle cx="502" cy="757" r="0.9" fill="#ffffff"/><circle cx="511" cy="757" r="0.9" fill="#ffffff"/><circle cx="520" cy="757" r="0.9" fill="#ffffff"/><circle cx="529" cy="757" r="0.9" fill="#ffffff"/><circle cx="538" cy="757" r="0.9" fill="#ffffff"/><circle cx="547" cy="757" r="0.9" fill="#ffffff"/><circle cx="556" cy="757" r="0.9" fill="#ffffff"/><circle cx="565" cy="757" r="0.9" fill="#ffffff"/><circle cx="574" cy="757" r="0.9" fill="#ffffff"/><circle cx="583" cy="757" r="0.9" fill="#ffffff"/><circle cx="592" cy="757" r="0.9" fill="#ffffff"/><circle cx="601" cy="757" r="0.9" fill="#ffffff"/><circle cx="610" cy="757" r="0.9" fill="#ffffff"/><circle cx="619" cy="757" r="0.9" fill="#ffffff"/><circle cx="628" cy="757" r="0.9" fill="#ffffff"/><circle cx="637" cy="757" r="0.9" fill="#ffffff"/><circle cx="646" cy="757" r="0.9" fill="#ffffff"/><circle cx="655" cy="757" r="0.9" fill="#ffffff"/><circle cx="475" cy="766" r="0.9" fill="#ffffff"/><circle cx="484" cy="766" r="0.9" fill="#ffffff"/><circle cx="493" cy="766" r="0.9" fill="#ffffff"/><circle cx="502" cy="766" r="0.9" fill="#ffffff"/><circle cx="511" cy="766" r="0.9" fill="#ffffff"/><circle cx="520" cy="766" r="0.9" fill="#ffffff"/><circle cx="529" cy="766" r="0.9" fill="#ffffff"/><circle cx="538" cy="766" r="0.9" fill="#ffffff"/><circle cx="547" cy="766" r="0.9" fill="#ffffff"/><circle cx="556" cy="766" r="0.9" fill="#ffffff"/><circle cx="565" cy="766" r="0.9" fill="#ffffff"/><circle cx="574" cy="766" r="0.9" fill="#ffffff"/><circle cx="583" cy="766" r="0.9" fill="#ffffff"/><circle cx="592" cy="766" r="0.9" fill="#ffffff"/><circle cx="601" cy="766" r="0.9" fill="#ffffff"/><circle cx="610" cy="766" r="0.9" fill="#ffffff"/><circle cx="619" cy="766" r="0.9" fill="#ffffff"/><circle cx="628" cy="766" r="0.9" fill="#ffffff"/><circle cx="637" cy="766" r="0.9" fill="#ffffff"/><circle cx="646" cy="766" r="0.9" fill="#ffffff"/><circle cx="655" cy="766" r="0.9" fill="#ffffff"/><circle cx="475" cy="775" r="0.9" fill="#ffffff"/><circle cx="484" cy="775" r="0.9" fill="#ffffff"/><circle cx="493" cy="775" r="0.9" fill="#ffffff"/><circle cx="502" cy="775" r="0.9" fill="#ffffff"/><circle cx="511" cy="775" r="0.9" fill="#ffffff"/><circle cx="520" cy="775" r="0.9" fill="#ffffff"/><circle cx="529" cy="775" r="0.9" fill="#ffffff"/><circle cx="538" cy="775" r="0.9" fill="#ffffff"/><circle cx="547" cy="775" r="0.9" fill="#ffffff"/><circle cx="556" cy="775" r="0.9" fill="#ffffff"/><circle cx="565" cy="775" r="0.9" fill="#ffffff"/><circle cx="574" cy="775" r="0.9" fill="#ffffff"/><circle cx="583" cy="775" r="0.9" fill="#ffffff"/><circle cx="592" cy="775" r="0.9" fill="#ffffff"/><circle cx="601" cy="775" r="0.9" fill="#ffffff"/><circle cx="610" cy="775" r="0.9" fill="#ffffff"/><circle cx="619" cy="775" r="0.9" fill="#ffffff"/><circle cx="628" cy="775" r="0.9" fill="#ffffff"/><circle cx="637" cy="775" r="0.9" fill="#ffffff"/><circle cx="646" cy="775" r="0.9" fill="#ffffff"/><circle cx="655" cy="775" r="0.9" fill="#ffffff"/><circle cx="475" cy="784" r="0.9" fill="#ffffff"/><circle cx="484" cy="784" r="0.9" fill="#ffffff"/><circle cx="493" cy="784" r="0.9" fill="#ffffff"/><circle cx="502" cy="784" r="0.9" fill="#ffffff"/><circle cx="511" cy="784" r="0.9" fill="#ffffff"/><circle cx="520" cy="784" r="0.9" fill="#ffffff"/><circle cx="529" cy="784" r="0.9" fill="#ffffff"/><circle cx="538" cy="784" r="0.9" fill="#ffffff"/><circle cx="547" cy="784" r="0.9" fill="#ffffff"/><circle cx="556" cy="784" r="0.9" fill="#ffffff"/><circle cx="565" cy="784" r="0.9" fill="#ffffff"/><circle cx="574" cy="784" r="0.9" fill="#ffffff"/><circle cx="583" cy="784" r="0.9" fill="#ffffff"/><circle cx="592" cy="784" r="0.9" fill="#ffffff"/><circle cx="601" cy="784" r="0.9" fill="#ffffff"/><circle cx="610" cy="784" r="0.9" fill="#ffffff"/><circle cx="619" cy="784" r="0.9" fill="#ffffff"/><circle cx="628" cy="784" r="0.9" fill="#ffffff"/><circle cx="637" cy="784" r="0.9" fill="#ffffff"/><circle cx="646" cy="784" r="0.9" fill="#ffffff"/><circle cx="655" cy="784" r="0.9" fill="#ffffff"/><circle cx="475" cy="793" r="0.9" fill="#ffffff"/><circle cx="484" cy="793" r="0.9" fill="#ffffff"/><circle cx="493" cy="793" r="0.9" fill="#ffffff"/><circle cx="502" cy="793" r="0.9" fill="#ffffff"/><circle cx="511" cy="793" r="0.9" fill="#ffffff"/><circle cx="520" cy="793" r="0.9" fill="#ffffff"/><circle cx="529" cy="793" r="0.9" fill="#ffffff"/><circle cx="538" cy="793" r="0.9" fill="#ffffff"/><circle cx="547" cy="793" r="0.9" fill="#ffffff"/><circle cx="556" cy="793" r="0.9" fill="#ffffff"/><circle cx="565" cy="793" r="0.9" fill="#ffffff"/><circle cx="574" cy="793" r="0.9" fill="#ffffff"/><circle cx="583" cy="793" r="0.9" fill="#ffffff"/><circle cx="592" cy="793" r="0.9" fill="#ffffff"/><circle cx="601" cy="793" r="0.9" fill="#ffffff"/><circle cx="610" cy="793" r="0.9" fill="#ffffff"/><circle cx="619" cy="793" r="0.9" fill="#ffffff"/><circle cx="628" cy="793" r="0.9" fill="#ffffff"/><circle cx="637" cy="793" r="0.9" fill="#ffffff"/><circle cx="646" cy="793" r="0.9" fill="#ffffff"/><circle cx="655" cy="793" r="0.9" fill="#ffffff"/><circle cx="475" cy="802" r="0.9" fill="#ffffff"/><circle cx="484" cy="802" r="0.9" fill="#ffffff"/><circle cx="493" cy="802" r="0.9" fill="#ffffff"/><circle cx="502" cy="802" r="0.9" fill="#ffffff"/><circle cx="511" cy="802" r="0.9" fill="#ffffff"/><circle cx="520" cy="802" r="0.9" fill="#ffffff"/><circle cx="529" cy="802" r="0.9" fill="#ffffff"/><circle cx="538" cy="802" r="0.9" fill="#ffffff"/><circle cx="547" cy="802" r="0.9" fill="#ffffff"/><circle cx="556" cy="802" r="0.9" fill="#ffffff"/><circle cx="565" cy="802" r="0.9" fill="#ffffff"/><circle cx="574" cy="802" r="0.9" fill="#ffffff"/><circle cx="583" cy="802" r="0.9" fill="#ffffff"/><circle cx="592" cy="802" r="0.9" fill="#ffffff"/><circle cx="601" cy="802" r="0.9" fill="#ffffff"/><circle cx="610" cy="802" r="0.9" fill="#ffffff"/><circle cx="619" cy="802" r="0.9" fill="#ffffff"/><circle cx="628" cy="802" r="0.9" fill="#ffffff"/><circle cx="637" cy="802" r="0.9" fill="#ffffff"/><circle cx="646" cy="802" r="0.9" fill="#ffffff"/><circle cx="655" cy="802" r="0.9" fill="#ffffff"/></g>
<g data-node="h_hot" data-pinned="false" data-shape="rect"><rect x="470" y="842" width="190" height="56" fill="#22222a" stroke="#ffffff" stroke-width="1"/><line x1="660" y1="849" x2="653" y2="842" stroke="#ffffff" stroke-width="0.7"/><line x1="660" y1="858" x2="644" y2="842" stroke="#ffffff" stroke-width="0.7"/><line x1="660" y1="867" x2="635" y2="842" stroke="#ffffff" stroke-width="0.7"/><line x1="660" y1="876" x2="626" y2="842" stroke="#ffffff" stroke-width="0.7"/><line x1="660" y1="885" x2="617" y2="842" stroke="#ffffff" stroke-width="0.7"/><line x1="660" y1="894" x2="608" y2="842" stroke="#ffffff" stroke-width="0.7"/><line x1="599" y1="842" x2="655" y2="898" stroke="#ffffff" stroke-width="0.7"/><line x1="590" y1="842" x2="646" y2="898" stroke="#ffffff" stroke-width="0.7"/><line x1="581" y1="842" x2="637" y2="898" stroke="#ffffff" stroke-width="0.7"/><line x1="572" y1="842" x2="628" y2="898" stroke="#ffffff" stroke-width="0.7"/><line x1="563" y1="842" x2="619" y2="898" stroke="#ffffff" stroke-width="0.7"/><line x1="554" y1="842" x2="610" y2="898" stroke="#ffffff" stroke-width="0.7"/><line x1="545" y1="842" x2="601" y2="898" stroke="#ffffff" stroke-width="0.7"/><line x1="536" y1="842" x2="592" y2="898" stroke="#ffffff" stroke-width="0.7"/><line x1="527" y1="842" x2="583" y2="898" stroke="#ffffff" stroke-width="0.7"/><line x1="518" y1="842" x2="574" y2="898" stroke="#ffffff" stroke-width="0.7"/><line x1="509" y1="842" x2="565" y2="898" stroke="#ffffff" stroke-width="0.7"/><line x1="500" y1="842" x2="556" y2="898" stroke="#ffffff" stroke-width="0.7"/><line x1="491" y1="842" x2="547" y2="898" stroke="#ffffff" stroke-width="0.7"/><line x1="482" y1="842" x2="538" y2="898" stroke="#ffffff" stroke-width="0.7"/><line x1="473" y1="842" x2="529" y2="898" stroke="#ffffff" stroke-width="0.7"/><line x1="470" y1="848" x2="520" y2="898" stroke="#ffffff" stroke-width="0.7"/><line x1="470" y1="857" x2="511" y2="898" stroke="#ffffff" stroke-width="0.7"/><line x1="470" y1="866" x2="502" y2="898" stroke="#ffffff" stroke-width="0.7"/><line x1="470" y1="875" x2="493" y2="898" stroke="#ffffff" stroke-width="0.7"/><line x1="470" y1="884" x2="484" y2="898" stroke="#ffffff" stroke-width="0.7"/><line x1="470" y1="893" x2="475" y2="898" stroke="#ffffff" stroke-width="0.7"/></g>
<g data-node="h_drum" data-pinned="false" data-shape="rect"><rect x="220" y="752" width="180" height="56" fill="#22222a" stroke="#ffffff" stroke-width="1"/></g>
<g data-node="h_fan" data-pinned="false" data-shape="rect"><rect x="220" y="842" width="180" height="56" fill="#22222a" stroke="#ffffff" stroke-width="1"/></g>
<g data-node="t2" data-pinned="false" data-shape="rect"></g>
<g data-node="t3" data-pinned="false" data-shape="rect"></g>
<g data-node="t4" data-pinned="false" data-shape="rect"></g>
<g data-node="w1" data-pinned="false" data-shape="rect"><rect x="334" y="216" width="232" height="34" fill="#22222a" stroke="#ffffff" stroke-width="1"/><rect x="334" y="216" width="232" height="34" fill="#ffffff" fill-opacity="0.82"/></g>
<g data-node="y730" data-pinned="false" data-shape="rect"><rect x="950" y="730" width="290" height="24" fill="#22222a" stroke="#ffffff" stroke-width="1"/></g>
<g data-node="y754" data-pinned="false" data-shape="rect"><rect x="950" y="754" width="290" height="24" fill="#22222a" stroke="#ffffff" stroke-width="1"/></g>
<g data-node="y778" data-pinned="false" data-shape="rect"><rect x="950" y="778" width="290" height="24" fill="#22222a" stroke="#ffffff" stroke-width="1"/></g>
<g data-node="y802" data-pinned="false" data-shape="rect"><rect x="950" y="802" width="290" height="24" fill="#22222a" stroke="#ffffff" stroke-width="1"/></g>
<g data-node="y210" data-pinned="false" data-shape="rect"><rect x="990" y="210" width="250" height="24" fill="#22222a" stroke="#ffffff" stroke-width="1"/></g>
<g data-node="y234" data-pinned="false" data-shape="rect"><rect x="990" y="234" width="250" height="24" fill="#22222a" stroke="#ffffff" stroke-width="1"/></g>
<g data-node="y258" data-pinned="false" data-shape="rect"><rect x="990" y="258" width="250" height="24" fill="#22222a" stroke="#ffffff" stroke-width="1"/></g>
<g data-node="y282" data-pinned="false" data-shape="rect"><rect x="990" y="282" width="250" height="24" fill="#22222a" stroke="#ffffff" stroke-width="1"/></g>
<g data-node="y306" data-pinned="false" data-shape="rect"><rect x="990" y="306" width="250" height="24" fill="#22222a" stroke="#ffffff" stroke-width="1"/></g>
<g data-node="y494" data-pinned="false" data-shape="rect"><rect x="990" y="494" width="250" height="24" fill="#22222a" stroke="#ffffff" stroke-width="1"/></g>
<g data-node="y518" data-pinned="false" data-shape="rect"><rect x="990" y="518" width="250" height="24" fill="#22222a" stroke="#ffffff" stroke-width="1"/></g>
<g data-node="y542" data-pinned="false" data-shape="rect"><rect x="990" y="542" width="250" height="24" fill="#22222a" stroke="#ffffff" stroke-width="1"/></g>
<g data-node="x210" data-pinned="false" data-shape="rect"><rect x="780" y="210" width="210" height="24" fill="#22222a" stroke="#ffffff" stroke-width="1"/></g>
<g data-node="x234" data-pinned="false" data-shape="rect"><rect x="780" y="234" width="210" height="24" fill="#22222a" stroke="#ffffff" stroke-width="1"/></g>
<g data-node="x258" data-pinned="false" data-shape="rect"><rect x="780" y="258" width="210" height="24" fill="#22222a" stroke="#ffffff" stroke-width="1"/></g>
<g data-node="x282" data-pinned="false" data-shape="rect"><rect x="780" y="282" width="210" height="24" fill="#22222a" stroke="#ffffff" stroke-width="1"/></g>
<g data-node="x306" data-pinned="false" data-shape="rect"><rect x="780" y="306" width="210" height="24" fill="#22222a" stroke="#ffffff" stroke-width="1"/></g>
<g data-node="x494" data-pinned="false" data-shape="rect"><rect x="780" y="494" width="210" height="24" fill="#22222a" stroke="#ffffff" stroke-width="1"/></g>
<g data-node="x518" data-pinned="false" data-shape="rect"><rect x="780" y="518" width="210" height="24" fill="#22222a" stroke="#ffffff" stroke-width="1"/></g>
<g data-node="x542" data-pinned="false" data-shape="rect"><rect x="780" y="542" width="210" height="24" fill="#22222a" stroke="#ffffff" stroke-width="1"/></g>
<g data-node="pmp" data-pinned="false" data-shape="rect"><rect x="390" y="612" width="120" height="40" fill="#22222a" stroke="#ffffff" stroke-width="1"/></g>
<g data-node="x730" data-pinned="false" data-shape="rect"><rect x="780" y="730" width="170" height="24" fill="#22222a" stroke="#ffffff" stroke-width="1"/></g>
<g data-node="x754" data-pinned="false" data-shape="rect"><rect x="780" y="754" width="170" height="24" fill="#22222a" stroke="#ffffff" stroke-width="1"/></g>
<g data-node="x778" data-pinned="false" data-shape="rect"><rect x="780" y="778" width="170" height="24" fill="#22222a" stroke="#ffffff" stroke-width="1"/></g>
<g data-node="x802" data-pinned="false" data-shape="rect"><rect x="780" y="802" width="170" height="24" fill="#22222a" stroke="#ffffff" stroke-width="1"/></g>
<g data-node="wN" data-pinned="false" data-shape="rect"></g>
<g data-node="blN" data-pinned="false" data-shape="rect"></g>
<g data-node="drumN" data-pinned="false" data-shape="rect"></g>
<g data-node="mot" data-pinned="false" data-shape="rect"><circle cx="650" cy="470" r="26" fill="#22222a" stroke="#ffffff" stroke-width="1"/></g>
<g data-node="dpN" data-pinned="false" data-shape="rect"></g>
<g data-node="tubN2" data-pinned="false" data-shape="rect"></g>
<g data-node="tubN" data-pinned="false" data-shape="rect"></g>
<g data-node="motN" data-pinned="false" data-shape="rect"></g>
<g data-node="spN" data-pinned="false" data-shape="rect"></g>
<g data-node="p0" data-pinned="false" data-shape="rect"></g>
<g data-node="p1" data-pinned="false" data-shape="rect"></g>
<g data-node="p2" data-pinned="false" data-shape="rect"></g>
<g data-node="p3" data-pinned="false" data-shape="rect"></g>
<g data-node="p4" data-pinned="false" data-shape="rect"></g>
<g data-node="p5" data-pinned="false" data-shape="rect"></g>
<g data-node="p6" data-pinned="false" data-shape="rect"></g>
<g data-node="p7" data-pinned="false" data-shape="rect"></g>
<g data-node="p8" data-pinned="false" data-shape="rect"></g>
<g data-node="p9" data-pinned="false" data-shape="rect"></g>
<g data-node="p10" data-pinned="false" data-shape="rect"></g>
<g data-node="p11" data-pinned="false" data-shape="rect"></g>
<g data-node="p12" data-pinned="false" data-shape="rect"></g>
<g data-node="p13" data-pinned="false" data-shape="rect"></g>
<g data-node="p14" data-pinned="false" data-shape="rect"></g>
<g data-node="p15" data-pinned="false" data-shape="rect"></g>
<g data-node="p16" data-pinned="false" data-shape="rect"></g>
<g data-node="p17" data-pinned="false" data-shape="rect"></g>
<g data-node="p18" data-pinned="false" data-shape="rect"></g>
<g data-node="p19" data-pinned="false" data-shape="rect"></g>
<g data-node="p20" data-pinned="false" data-shape="rect"></g>
<g data-node="p21" data-pinned="false" data-shape="rect"></g>
<g data-edge="p0&gt;p1" data-pinned="false"><path d="M 353.8 209 L 334.2 297" fill="none" stroke="#a0a0ab" stroke-width="5" stroke-linejoin="round" stroke-linecap="round"/></g>
<g data-edge="p2&gt;p3" data-pinned="false"><path d="M 353.9 661 L 338.1 527" fill="none" stroke="#a0a0ab" stroke-width="5" stroke-linejoin="round" stroke-linecap="round"/></g>
<g data-edge="p4&gt;p5" data-pinned="false"><path d="M 546.2 209 L 565.8 297" fill="none" stroke="#a0a0ab" stroke-width="5" stroke-linejoin="round" stroke-linecap="round"/></g>
<g data-edge="p6&gt;p7" data-pinned="false"><path d="M 546.1 661 L 561.9 527" fill="none" stroke="#a0a0ab" stroke-width="5" stroke-linejoin="round" stroke-linecap="round"/></g>
<g data-edge="p8&gt;p9" data-pinned="false"><path d="M 334.8 350 L 340.1 340.6 L 346.9 330.9 L 354.5 321.8 L 363 313.4 L 372.2 305.8 L 382.1 299.2 L 392.5 293.4 L 403.4 288.6 L 414.7 284.9 L 426.3 282.2 L 438.1 280.5 L 450 280 L 461.9 280.5 L 473.7 282.2 L 485.3 284.9 L 496.6 288.6 L 507.5 293.4 L 517.9 299.2 L 527.8 305.8 L 537 313.4 L 545.5 321.8 L 553.1 330.9 L 559.9 340.6 L 565.2 350" fill="none" stroke="#a0a0ab" stroke-width="5" stroke-linejoin="round" stroke-linecap="round"/></g>
<g data-edge="p10&gt;p11" data-pinned="false"><path d="M 601 470 L 623 470" fill="none" stroke="#a0a0ab" stroke-width="5" stroke-linejoin="round" stroke-linecap="round"/></g>
<g data-edge="p12&gt;p13" data-pinned="false"><path d="M 450 561 L 450 611" fill="none" stroke="#a0a0ab" stroke-width="2"/><path d="M 450 611 L 454 601 L 446 601 Z" fill="#a0a0ab" stroke="none"/></g>
<g data-edge="p14&gt;p15" data-pinned="false"><path d="M 401 780 L 469 780" fill="none" stroke="#a0a0ab" stroke-width="2"/><path d="M 469 780 L 459 776 L 459 784 Z" fill="#a0a0ab" stroke="none"/></g>
<g data-edge="p16&gt;p17" data-pinned="false"><path d="M 565 809 L 565 841" fill="none" stroke="#a0a0ab" stroke-width="2"/><path d="M 565 841 L 569 831 L 561 831 Z" fill="#a0a0ab" stroke="none"/></g>
<g data-edge="p18&gt;p19" data-pinned="false"><path d="M 469 870 L 401 870" fill="none" stroke="#a0a0ab" stroke-width="2"/><path d="M 401 870 L 411 874 L 411 866 Z" fill="#a0a0ab" stroke="none"/></g>
<g data-edge="p20&gt;p21" data-pinned="false"><path d="M 310 841 L 310 809" fill="none" stroke="#a0a0ab" stroke-width="2"/><path d="M 310 809 L 306 819 L 314 819 Z" fill="#a0a0ab" stroke="none"/></g>




















































































<g data-name="why2"><text x="1010" y="374" text-anchor="middle" font-family="sans-serif" font-size="12" fill="#f4f4f6">遠心加速度 ＝ r ω² ／ g。ω ＝ 2πN/60。</text><text x="1010" y="388" text-anchor="middle" font-family="sans-serif" font-size="12" fill="#f4f4f6">洗いは 1G を超えてはいけない。超えると衣類が壁に貼りつき、</text><text x="1010" y="402" text-anchor="middle" font-family="sans-serif" font-size="12" fill="#f4f4f6">落ちて叩きつける動きが消えてしまう。</text></g>
<g data-name="why3"><text x="1010" y="610" text-anchor="middle" font-family="sans-serif" font-size="12" fill="#f4f4f6">だからドラムは機械に固定できない。 ばねで吊ってダンパで受け、</text><text x="1010" y="624" text-anchor="middle" font-family="sans-serif" font-size="12" fill="#f4f4f6">おもりで重くして揺れを抑える。ドラム式が重い理由でもある</text><text x="1010" y="638" text-anchor="middle" font-family="sans-serif" font-size="12" fill="#f4f4f6">（洗濯乾燥機の平均は、ドラム式 77.7kg ／ 縦型 50.2kg）。</text></g>
<g data-name="h_why"><text x="450" y="982" text-anchor="middle" font-family="sans-serif" font-size="12" fill="#f4f4f6">乾いた空気を作って回すので、部屋へ湿気も熱も出さない。</text><text x="450" y="996" text-anchor="middle" font-family="sans-serif" font-size="12" fill="#f4f4f6">ヒーター式より電気も少ない（ただし時間はかかる）。</text></g>
<g data-name="why4"><text x="1010" y="865" text-anchor="middle" font-family="sans-serif" font-size="12" fill="#f4f4f6">脱水前にいつまでも回っているのは、測り直している。</text><text x="1010" y="879" text-anchor="middle" font-family="sans-serif" font-size="12" fill="#f4f4f6">収まらないときに「偏り」と出して止まる。</text></g>
<g data-name="r1"><text x="150" y="1045" text-anchor="start" font-family="sans-serif" font-size="12" fill="#f4f4f6">同じドラムで、1G 未満と 335G を切り替えています（②）。洗いと脱水は、まったく違う世界です。</text></g>
<g data-name="r2"><text x="150" y="1069" text-anchor="start" font-family="sans-serif" font-size="12" fill="#f4f4f6">洗いは 1G を超えてはいけません。 超えると衣類が壁に貼りついて、落ちて叩きつける動きが消えます。ドラム径 600mm なら 55rpm が境です。</text></g>
<g data-name="r3"><text x="150" y="1093" text-anchor="start" font-family="sans-serif" font-size="12" fill="#f4f4f6">脱水の 1,000rpm は 335G。 水が布から 335 倍の重さで引き剥がされます。</text></g>
<g data-name="r4"><text x="150" y="1117" text-anchor="start" font-family="sans-serif" font-size="12" fill="#f4f4f6">だから 1kg の偏りが 335kgf の回る力になります（③）。ドラムは機械に固定できません。</text></g>
<g data-name="r5"><text x="150" y="1141" text-anchor="start" font-family="sans-serif" font-size="12" fill="#f4f4f6">ばねで吊り、ダンパで受け、おもりで重くする（①）。ドラム式が重いのは、この三つのためです（平均 77.7kg／縦型 50.2kg）。</text></g>
<g data-name="r6"><text x="150" y="1165" text-anchor="start" font-family="sans-serif" font-size="12" fill="#f4f4f6">脱水前にいつまでも回っているのは、偏りを測り直しているからです（④）。収まらないときに「偏り」と出して止まります。</text></g>
<g data-name="r7"><text x="150" y="1189" text-anchor="start" font-family="sans-serif" font-size="12" fill="#f4f4f6">ヒートポンプ乾燥は、空気を外へ出しません（⑤）。冷やして水を落とし、温め直して回す。外へ捨てるのは水だけです。</text></g>
<g data-name="h_dr"><text x="440" y="931" text-anchor="middle" font-family="sans-serif" font-size="12" fill="#f4f4f6">蒸発器で落ちた水は排水へ（外へ捨てるのは水だけ）</text></g>
<g data-name="t1"><text x="150" y="164" text-anchor="start" font-family="sans-serif" font-size="12" fill="#f4f4f6">① 断面 —— ドラムは、機械に固定されていない</text></g>
<g data-name="t5"><text x="150" y="726" text-anchor="start" font-family="sans-serif" font-size="12" fill="#f4f4f6">⑤ ヒートポンプ乾燥は、空気を外へ出さない</text></g>
<g data-name="h186"><text x="1010" y="202" text-anchor="middle" font-family="sans-serif" font-size="12" fill="#0f0f13">ドラム径 600mm のとき（内側の壁で）</text></g>
<g data-name="h470"><text x="1010" y="486" text-anchor="middle" font-family="sans-serif" font-size="12" fill="#0f0f13">脱水 1,000rpm で、片寄った分の重さ</text></g>
<g data-name="h706"><text x="1010" y="722" text-anchor="middle" font-family="sans-serif" font-size="12" fill="#0f0f13">脱水に入るまで</text></g>
<g data-name="h_cool"><rect x="542" y="766" width="46" height="15" fill="#0f0f13"/><text x="565" y="777" text-anchor="middle" font-family="sans-serif" font-size="12" fill="#f4f4f6">蒸発器</text><rect x="502" y="780" width="126" height="15" fill="#0f0f13"/><text x="565" y="791" text-anchor="middle" font-family="sans-serif" font-size="12" fill="#f4f4f6">冷やして水を落とす</text></g>
<g data-name="h_hot"><rect x="542" y="856" width="46" height="15" fill="#0f0f13"/><text x="565" y="867" text-anchor="middle" font-family="sans-serif" font-size="12" fill="#f4f4f6">凝縮器</text><rect x="542" y="870" width="46" height="15" fill="#0f0f13"/><text x="565" y="881" text-anchor="middle" font-family="sans-serif" font-size="12" fill="#f4f4f6">温める</text></g>
<g data-name="h_drum"><text x="310" y="784" text-anchor="middle" font-family="sans-serif" font-size="12" fill="#f4f4f6">ドラム（衣類）</text></g>
<g data-name="h_fan"><text x="310" y="874" text-anchor="middle" font-family="sans-serif" font-size="12" fill="#f4f4f6">ファン</text></g>
<g data-name="t2"><text x="780" y="164" text-anchor="start" font-family="sans-serif" font-size="12" fill="#f4f4f6">② 同じドラムで、1G 未満と 335G を切り替える</text></g>
<g data-name="t3"><text x="780" y="454" text-anchor="start" font-family="sans-serif" font-size="12" fill="#f4f4f6">③ 1kg の偏りが、335kgf の回る力になる</text></g>
<g data-name="t4"><text x="780" y="690" text-anchor="start" font-family="sans-serif" font-size="12" fill="#f4f4f6">④ 回す前に、偏りを消しにいく</text></g>
<g data-name="y730"><text x="956" y="746" text-anchor="start" font-family="sans-serif" font-size="12" fill="#f4f4f6">偏りを測る（モーターの負けかたで分かる）</text></g>
<g data-name="y754"><text x="956" y="770" text-anchor="start" font-family="sans-serif" font-size="12" fill="#f4f4f6">正逆に振って、片寄りを崩す</text></g>
<g data-name="y778"><text x="956" y="794" text-anchor="start" font-family="sans-serif" font-size="12" fill="#f4f4f6">収まらなければ、もう一度</text></g>
<g data-name="y802"><text x="956" y="818" text-anchor="start" font-family="sans-serif" font-size="12" fill="#f4f4f6">回り出すと、中の液や球が反対側へ寄る</text></g>
<g data-name="y210"><text x="996" y="226" text-anchor="start" font-family="sans-serif" font-size="12" fill="#f4f4f6">0.7G　衣類は上で落ちる（たたき洗い）</text></g>
<g data-name="y234"><text x="996" y="250" text-anchor="start" font-family="sans-serif" font-size="12" fill="#f4f4f6">ここを超えると、落ちなくなる</text></g>
<g data-name="y258"><text x="996" y="274" text-anchor="start" font-family="sans-serif" font-size="12" fill="#f4f4f6">30G</text></g>
<g data-name="y282"><text x="996" y="298" text-anchor="start" font-family="sans-serif" font-size="12" fill="#f4f4f6">335G</text></g>
<g data-name="y306"><text x="996" y="322" text-anchor="start" font-family="sans-serif" font-size="12" fill="#f4f4f6">658G</text></g>
<g data-name="y494"><text x="996" y="510" text-anchor="start" font-family="sans-serif" font-size="12" fill="#f4f4f6">約 170kgf が回りながら引っぱる</text></g>
<g data-name="y518"><text x="996" y="534" text-anchor="start" font-family="sans-serif" font-size="12" fill="#f4f4f6">約 335kgf</text></g>
<g data-name="y542"><text x="996" y="558" text-anchor="start" font-family="sans-serif" font-size="12" fill="#f4f4f6">約 670kgf</text></g>
<g data-name="x210"><text x="885" y="226" text-anchor="middle" font-family="sans-serif" font-size="12" fill="#f4f4f6">洗い　45 rpm</text></g>
<g data-name="x234"><text x="885" y="250" text-anchor="middle" font-family="sans-serif" font-size="12" fill="#f4f4f6">1G の境　55 rpm</text></g>
<g data-name="x258"><text x="885" y="274" text-anchor="middle" font-family="sans-serif" font-size="12" fill="#f4f4f6">すすぎ　300 rpm</text></g>
<g data-name="x282"><text x="885" y="298" text-anchor="middle" font-family="sans-serif" font-size="12" fill="#f4f4f6">脱水　1,000 rpm</text></g>
<g data-name="x306"><text x="885" y="322" text-anchor="middle" font-family="sans-serif" font-size="12" fill="#f4f4f6">脱水　1,400 rpm</text></g>
<g data-name="x494"><text x="885" y="510" text-anchor="middle" font-family="sans-serif" font-size="12" fill="#f4f4f6">偏り 0.5kg</text></g>
<g data-name="x518"><text x="885" y="534" text-anchor="middle" font-family="sans-serif" font-size="12" fill="#f4f4f6">偏り 1.0kg</text></g>
<g data-name="x542"><text x="885" y="558" text-anchor="middle" font-family="sans-serif" font-size="12" fill="#f4f4f6">偏り 2.0kg</text></g>
<g data-name="pmp"><text x="450" y="636" text-anchor="middle" font-family="sans-serif" font-size="12" fill="#f4f4f6">排水ポンプ</text></g>
<g data-name="x730"><text x="865" y="746" text-anchor="middle" font-family="sans-serif" font-size="12" fill="#f4f4f6">ゆっくり回す</text></g>
<g data-name="x754"><text x="865" y="770" text-anchor="middle" font-family="sans-serif" font-size="12" fill="#f4f4f6">ほぐす</text></g>
<g data-name="x778"><text x="865" y="794" text-anchor="middle" font-family="sans-serif" font-size="12" fill="#f4f4f6">測り直す</text></g>
<g data-name="x802"><text x="865" y="818" text-anchor="middle" font-family="sans-serif" font-size="12" fill="#f4f4f6">バランサー</text></g>
<g data-name="wN"><text x="450" y="185" text-anchor="middle" font-family="sans-serif" font-size="12" fill="#f4f4f6">おもり（外槽に固定）</text></g>
<g data-name="blN"><text x="450" y="307" text-anchor="middle" font-family="sans-serif" font-size="12" fill="#f4f4f6">バランサー</text></g>
<g data-name="drumN"><text x="450" y="413" text-anchor="middle" font-family="sans-serif" font-size="12" fill="#f4f4f6">内ドラム（回る）</text></g>
<g data-name="dpN"><text x="206" y="653" text-anchor="start" font-family="sans-serif" font-size="12" fill="#f4f4f6">ダンパ</text></g>
<g data-name="tubN2"><text x="206" y="241" text-anchor="start" font-family="sans-serif" font-size="12" fill="#f4f4f6">（水を溜める）</text></g>
<g data-name="tubN"><text x="206" y="219" text-anchor="start" font-family="sans-serif" font-size="12" fill="#f4f4f6">外槽</text></g>
<g data-name="motN"><text x="610" y="517" text-anchor="start" font-family="sans-serif" font-size="12" fill="#f4f4f6">モーター</text></g>
<g data-name="spN"><text x="206" y="275" text-anchor="start" font-family="sans-serif" font-size="12" fill="#f4f4f6">吊りばね</text></g>

</svg>